<?xml version="1.0" standalone="no"?>
<!DOCTYPE svg PUBLIC "-//W3C//DTD SVG 20010904//EN"
"http://www.w3.org/TR/2001/REC-SVG-20010904/DTD/svg10.dtd"
[
 <!ATTLIST svg
  xmlns:xlink CDATA #FIXED "http://www.w3.org/1999/xlink">
]>
<!-- Created with Sodipodi ("http://www.sodipodi.com/") -->
<svg
   xml:space="preserve"
   width="128pt"
   height="128pt"
   viewBox="0 0 507.946 507.946"
   id="svg49"
   sodipodi:version="0.27"
   sodipodi:docname="/mnt/windows/Themes/Work/Blue-Sphere/noatunplay.svg"
   sodipodi:docbase="/mnt/windows/Themes/Work/Blue-Sphere/"
   xmlns="http://www.w3.org/2000/svg"
   xmlns:sodipodi="http://sodipodi.sourceforge.net/DTD/sodipodi-0.dtd"
   xmlns:xlink="http://www.w3.org/1999/xlink">
  <defs
     id="defs62">
    <radialGradient
       id="aigrd1"
       cx="218.9404"
       cy="219.7715"
       r="150.7063"
       fx="218.9404"
       fy="219.7715"
       gradientUnits="userSpaceOnUse"
       style="stroke:#000000;stroke-opacity:0.986014;stroke-width:0.981612;">
      <stop
         offset="0"
         style="stop-color:#73ffff;stroke:#000000;stroke-opacity:0.986014;stroke-width:0.981612;"
         id="stop53" />
      <stop
         offset="0.2809"
         style="stop-color:#2EA6B9;stroke:#000000;stroke-opacity:0.986014;stroke-width:0.981612;"
         id="stop54" />
      <stop
         offset="1"
         style="stop-color:#006b8b;stroke:#000000;stroke-opacity:0.986014;stroke-width:0.981612;"
         id="stop55" />
    </radialGradient>
  </defs>
  <sodipodi:namedview
     id="base">
    <sodipodi:guide
       orientation="horizontal"
       position="85.804413"
       id="sodipodi:guide62" />
    <sodipodi:guide
       orientation="horizontal"
       position="37.753944"
       id="sodipodi:guide63" />
  </sodipodi:namedview>
  <path
     style="font-size:12;stroke:none;stroke-width:0.979268;stroke-opacity:0.986014;fill:#a4c9ee;fill-opacity:0.7;"
     d="M134.757,263.776c0,66.739,54.298,121.04,121.039,121.04c66.739,0,121.039-54.301,121.039-121.04c0-66.741-54.3-121.039-121.039-121.039c-66.741,0-121.039,54.298-121.039,121.039z"
     id="path51"
     transform="matrix(1.89511,0,0,1.91236,-231.458,-247.971)" />
  <path
     style="font-size:12;fill:url(#aigrd1);fill-rule:evenodd;stroke:#1c6671;stroke-width:7.73106;stroke-opacity:0.988235;"
     d="M356.643,263.366c0,57.027-46.23,103.257-103.256,103.257c-57.027,0-103.256-46.229-103.256-103.257c0-57.027,46.229-103.256,103.256-103.256     c57.025,0,103.256,46.229,103.256,103.256z"
     id="path56"
     transform="matrix(2.04451,0,0,2.04451,-264.353,-281.723)" />
  <path
     style="font-size:12;opacity:0.7;fill:#ffffff;stroke:#1c6772;stroke-width:2.38642;stroke-opacity:0.988235;"
     d="M 299.051 232.372 C 300.964 230.459 301.731 222.711 301.218 221.474 C 299.67 217.738 296.025 215.301 291.98 215.301 L 215.117 215.301 C 209.594 215.301 205.117 219.778 205.117 225.301 L 205.117 302.168 C 205.117 306.213 207.554 309.859 211.29 311.407 C 215.027 312.955 219.329 312.098 222.188 309.238 C 222.188 309.238 299.051 232.372 299.051 232.372 z "
     id="path59"
     transform="matrix(-1.03094,1.05323,-1.05323,-1.03094,774.561,269.436)"
     sodipodi:nodetypes="ccccccccc" />
</svg>
