<?xml version="1.0" encoding="UTF-8" standalone="no"?>
<!-- Created with Inkscape (http://www.inkscape.org/) -->
<svg
   xmlns:dc="http://purl.org/dc/elements/1.1/"
   xmlns:cc="http://creativecommons.org/ns#"
   xmlns:rdf="http://www.w3.org/1999/02/22-rdf-syntax-ns#"
   xmlns:svg="http://www.w3.org/2000/svg"
   xmlns="http://www.w3.org/2000/svg"
   xmlns:xlink="http://www.w3.org/1999/xlink"
   xmlns:sodipodi="http://sodipodi.sourceforge.net/DTD/sodipodi-0.dtd"
   xmlns:inkscape="http://www.inkscape.org/namespaces/inkscape"
   version="1.0"
   width="80.160004"
   height="17.255257"
   id="svg2"
   sodipodi:version="0.32"
   inkscape:version="0.46"
   sodipodi:docname="banner-digikam.svg"
   inkscape:output_extension="org.inkscape.output.svg.inkscape"
   inkscape:export-filename="/home/gilles/Documents/devel/SVN/trunk/graphics/digikam/data/pics/banner-digikam.png"
   inkscape:export-xdpi="171.67999"
   inkscape:export-ydpi="171.67999">
  <metadata
     id="metadata2882">
    <rdf:RDF>
      <cc:Work
         rdf:about="">
        <dc:format>image/svg+xml</dc:format>
        <dc:type
           rdf:resource="http://purl.org/dc/dcmitype/StillImage" />
      </cc:Work>
    </rdf:RDF>
  </metadata>
  <sodipodi:namedview
     inkscape:window-height="740"
     inkscape:window-width="1280"
     inkscape:pageshadow="2"
     inkscape:pageopacity="0.0"
     guidetolerance="10.0"
     gridtolerance="10.0"
     objecttolerance="10.0"
     borderopacity="1.0"
     bordercolor="#666666"
     pagecolor="#ffffff"
     id="base"
     showgrid="false"
     inkscape:zoom="6.7739518"
     inkscape:cx="40.080002"
     inkscape:cy="8.6276283"
     inkscape:window-x="-5"
     inkscape:window-y="-3"
     inkscape:current-layer="svg2" />
  <defs
     id="defs4">
    <path
       d="M 587.9088 485.6666 A 146.47212 146.47212 0 1 1  294.96455,485.6666 A 146.47212 146.47212 0 1 1  587.9088 485.6666 z"
       transform="matrix(-0.776793,0.3713236,-0.3713236,-0.776793,855.60919,670.69442)"
       style="opacity:0;fill:none;fill-opacity:1;fill-rule:evenodd;stroke:#000000;stroke-width:2.45571566;stroke-linecap:butt;stroke-linejoin:miter;stroke-miterlimit:4;stroke-dasharray:none;stroke-dashoffset:0;stroke-opacity:1"
       id="path17494" />
    <linearGradient
       x1="441.43668"
       y1="544.70605"
       x2="433.3645"
       y2="415.34024"
       id="linearGradient4237"
       xlink:href="#linearGradient16420"
       gradientUnits="userSpaceOnUse" />
    <radialGradient
       cx="443.9173"
       cy="654.35059"
       r="146.47212"
       fx="443.9173"
       fy="654.35059"
       id="radialGradient17551"
       xlink:href="#linearGradient16384"
       gradientUnits="userSpaceOnUse"
       gradientTransform="matrix(-0.1050143,-2.8532985,1.4143989,-5.2056269e-2,-434.97782,1955.0422)" />
    <radialGradient
       cx="443.9173"
       cy="654.35059"
       r="146.47212"
       fx="443.9173"
       fy="654.35059"
       id="radialGradient17549"
       xlink:href="#linearGradient16384"
       gradientUnits="userSpaceOnUse"
       gradientTransform="matrix(-0.1050143,-2.8532985,1.4143989,-5.2056269e-2,-434.97782,1955.0422)" />
    <radialGradient
       cx="443.9173"
       cy="654.35059"
       r="146.47212"
       fx="443.9173"
       fy="654.35059"
       id="radialGradient17547"
       xlink:href="#linearGradient16394"
       gradientUnits="userSpaceOnUse"
       gradientTransform="matrix(-0.1050143,-2.8532985,1.4143989,-5.2056269e-2,-434.97782,1955.0422)" />
    <radialGradient
       cx="443.9173"
       cy="654.35059"
       r="146.47212"
       fx="443.9173"
       fy="654.35059"
       id="radialGradient17545"
       xlink:href="#linearGradient16384"
       gradientUnits="userSpaceOnUse"
       gradientTransform="matrix(-0.1050143,-2.8532985,1.4143989,-5.2056269e-2,-434.97782,1955.0422)" />
    <linearGradient
       x1="593.0257"
       y1="475.22482"
       x2="295.20978"
       y2="494.20782"
       id="linearGradient17543"
       xlink:href="#linearGradient16410"
       gradientUnits="userSpaceOnUse" />
    <radialGradient
       cx="443.9173"
       cy="654.35059"
       r="146.47212"
       fx="443.9173"
       fy="654.35059"
       id="radialGradient17539"
       xlink:href="#linearGradient16394"
       gradientUnits="userSpaceOnUse"
       gradientTransform="matrix(-0.1050143,-2.8532985,1.4143989,-5.2056269e-2,-434.97782,1955.0422)" />
    <radialGradient
       cx="442.44681"
       cy="490.71738"
       r="146.97212"
       fx="442.44681"
       fy="490.71738"
       id="radialGradient17537"
       xlink:href="#linearGradient13429"
       gradientUnits="userSpaceOnUse"
       gradientTransform="matrix(0.7422936,0.6735628,-0.6719898,0.7405603,443.77845,-170.70416)" />
    <radialGradient
       cx="443.9173"
       cy="654.35059"
       r="146.47212"
       fx="443.9173"
       fy="654.35059"
       id="radialGradient17502"
       xlink:href="#linearGradient16394"
       gradientUnits="userSpaceOnUse"
       gradientTransform="matrix(-0.1050143,-2.8532985,1.4143989,-5.2056269e-2,-434.97782,1955.0422)" />
    <filter
       id="filter17486">
      <feGaussianBlur
         inkscape:collect="always"
         stdDeviation="1.4771469"
         id="feGaussianBlur17488" />
    </filter>
    <filter
       id="filter17476">
      <feGaussianBlur
         inkscape:collect="always"
         stdDeviation="1.474452"
         id="feGaussianBlur17478" />
    </filter>
    <radialGradient
       cx="443.9173"
       cy="654.35059"
       r="146.47212"
       fx="443.9173"
       fy="654.35059"
       id="radialGradient17465"
       xlink:href="#linearGradient16384"
       gradientUnits="userSpaceOnUse"
       gradientTransform="matrix(-0.1050143,-2.8532985,1.4143989,-5.2056269e-2,-434.97782,1955.0422)" />
    <radialGradient
       cx="443.9173"
       cy="654.35059"
       r="146.47212"
       fx="443.9173"
       fy="654.35059"
       id="radialGradient17463"
       xlink:href="#linearGradient16384"
       gradientUnits="userSpaceOnUse"
       gradientTransform="matrix(-0.1050143,-2.8532985,1.4143989,-5.2056269e-2,-434.97782,1955.0422)" />
    <radialGradient
       cx="443.9173"
       cy="654.35059"
       r="146.47212"
       fx="443.9173"
       fy="654.35059"
       id="radialGradient17461"
       xlink:href="#linearGradient16384"
       gradientUnits="userSpaceOnUse"
       gradientTransform="matrix(-0.1050143,-2.8532985,1.4143989,-5.2056269e-2,-434.97782,1955.0422)" />
    <radialGradient
       cx="441.24957"
       cy="482.12329"
       r="146.47212"
       fx="441.24957"
       fy="482.12329"
       id="radialGradient16426"
       xlink:href="#linearGradient16420"
       gradientUnits="userSpaceOnUse"
       gradientTransform="matrix(2.5034178,0.9111717,-0.7208221,1.9804425,-315.85729,-874.74831)" />
    <linearGradient
       x1="593.0257"
       y1="475.22482"
       x2="295.20978"
       y2="494.20782"
       id="linearGradient16416"
       xlink:href="#linearGradient16410"
       gradientUnits="userSpaceOnUse" />
    <radialGradient
       cx="443.9173"
       cy="654.35059"
       r="146.47212"
       fx="443.9173"
       fy="654.35059"
       id="radialGradient16392"
       xlink:href="#linearGradient16394"
       gradientUnits="userSpaceOnUse"
       gradientTransform="matrix(-0.1050143,-2.8532985,1.4143989,-5.2056269e-2,-434.97782,1955.0422)" />
    <radialGradient
       cx="442.44681"
       cy="490.71738"
       r="146.97212"
       fx="442.44681"
       fy="490.71738"
       id="radialGradient13435"
       xlink:href="#linearGradient13429"
       gradientUnits="userSpaceOnUse"
       gradientTransform="matrix(0.7422936,0.6735628,-0.6719898,0.7405603,443.77845,-170.70416)" />
    <linearGradient
       id="linearGradient13429">
      <stop
         style="stop-color:#000000;stop-opacity:1"
         offset="0"
         id="stop13431" />
      <stop
         style="stop-color:#666666;stop-opacity:1"
         offset="0.5"
         id="stop13437" />
      <stop
         style="stop-color:#7f7f7f;stop-opacity:0"
         offset="1"
         id="stop13433" />
    </linearGradient>
    <linearGradient
       id="linearGradient16372">
      <stop
         style="stop-color:#0062ea;stop-opacity:1"
         offset="0"
         id="stop16374" />
      <stop
         style="stop-color:#0062ea;stop-opacity:0"
         offset="1"
         id="stop16376" />
    </linearGradient>
    <linearGradient
       id="linearGradient16384">
      <stop
         style="stop-color:#ffb08d;stop-opacity:1"
         offset="0"
         id="stop16386" />
      <stop
         style="stop-color:#3c00ff;stop-opacity:0"
         offset="1"
         id="stop16388" />
    </linearGradient>
    <linearGradient
       id="linearGradient16394">
      <stop
         style="stop-color:#00ff14;stop-opacity:1"
         offset="0"
         id="stop16396" />
      <stop
         style="stop-color:#ffffff;stop-opacity:0"
         offset="1"
         id="stop16398" />
    </linearGradient>
    <linearGradient
       id="linearGradient16410">
      <stop
         style="stop-color:#ffffff;stop-opacity:1"
         offset="0"
         id="stop16412" />
      <stop
         style="stop-color:#ffffff;stop-opacity:0"
         offset="1"
         id="stop16414" />
    </linearGradient>
    <linearGradient
       id="linearGradient16420">
      <stop
         style="stop-color:#000000;stop-opacity:1"
         offset="0"
         id="stop16422" />
      <stop
         style="stop-color:#000000;stop-opacity:0"
         offset="1"
         id="stop16424" />
    </linearGradient>
    <inkscape:perspective
       sodipodi:type="inkscape:persp3d"
       inkscape:vp_x="0 : 159.50014 : 1"
       inkscape:vp_y="0 : 1000 : 0"
       inkscape:vp_z="319.00027 : 159.50014 : 1"
       inkscape:persp3d-origin="159.50014 : 106.33342 : 1"
       id="perspective77" />
    <linearGradient
       id="linearGradient4278">
      <stop
         style="stop-color:#000000;stop-opacity:1"
         offset="0"
         id="stop4280" />
      <stop
         style="stop-color:#ffffff;stop-opacity:0"
         offset="1"
         id="stop4282" />
    </linearGradient>
    <radialGradient
       inkscape:collect="always"
       xlink:href="#linearGradient13429"
       id="radialGradient2952"
       gradientUnits="userSpaceOnUse"
       gradientTransform="matrix(0.7422936,0.6735628,-0.6719898,0.7405603,443.77845,-170.70416)"
       cx="442.44681"
       cy="490.71738"
       fx="442.44681"
       fy="490.71738"
       r="146.97212" />
    <linearGradient
       inkscape:collect="always"
       xlink:href="#linearGradient16420"
       id="linearGradient2954"
       gradientUnits="userSpaceOnUse"
       x1="441.43668"
       y1="544.70605"
       x2="433.3645"
       y2="415.34024" />
    <radialGradient
       inkscape:collect="always"
       xlink:href="#linearGradient16384"
       id="radialGradient2956"
       gradientUnits="userSpaceOnUse"
       gradientTransform="matrix(-0.1050143,-2.8532985,1.4143989,-5.2056269e-2,-434.97782,1955.0422)"
       cx="443.9173"
       cy="654.35059"
       fx="443.9173"
       fy="654.35059"
       r="146.47212" />
    <linearGradient
       inkscape:collect="always"
       xlink:href="#linearGradient16410"
       id="linearGradient2958"
       gradientUnits="userSpaceOnUse"
       x1="593.0257"
       y1="475.22482"
       x2="295.20978"
       y2="494.20782" />
    <radialGradient
       inkscape:collect="always"
       xlink:href="#linearGradient16394"
       id="radialGradient2960"
       gradientUnits="userSpaceOnUse"
       gradientTransform="matrix(-0.1050143,-2.8532985,1.4143989,-5.2056269e-2,-434.97782,1955.0422)"
       cx="443.9173"
       cy="654.35059"
       fx="443.9173"
       fy="654.35059"
       r="146.47212" />
    <radialGradient
       inkscape:collect="always"
       xlink:href="#linearGradient16394"
       id="radialGradient2962"
       gradientUnits="userSpaceOnUse"
       gradientTransform="matrix(-0.1050143,-2.8532985,1.4143989,-5.2056269e-2,-434.97782,1955.0422)"
       cx="443.9173"
       cy="654.35059"
       fx="443.9173"
       fy="654.35059"
       r="146.47212" />
    <radialGradient
       inkscape:collect="always"
       xlink:href="#linearGradient16384"
       id="radialGradient2964"
       gradientUnits="userSpaceOnUse"
       gradientTransform="matrix(-0.1050143,-2.8532985,1.4143989,-5.2056269e-2,-434.97782,1955.0422)"
       cx="443.9173"
       cy="654.35059"
       fx="443.9173"
       fy="654.35059"
       r="146.47212" />
    <radialGradient
       inkscape:collect="always"
       xlink:href="#linearGradient16384"
       id="radialGradient2966"
       gradientUnits="userSpaceOnUse"
       gradientTransform="matrix(-0.1050143,-2.8532985,1.4143989,-5.2056269e-2,-434.97782,1955.0422)"
       cx="443.9173"
       cy="654.35059"
       fx="443.9173"
       fy="654.35059"
       r="146.47212" />
  </defs>
  <path
     id="text2160"
     style="font-size:15.27736187px;font-style:normal;font-weight:bold;fill:#f9f9f9;fill-opacity:1;stroke:#000000;stroke-width:0.30899999;stroke-linecap:round;stroke-linejoin:round;stroke-miterlimit:4;stroke-opacity:1;font-family:Fixed"
     d="M 6.581455,12.99686 C 6.571502,12.95707 6.55907,12.88745 6.544157,12.78799 C 6.534204,12.68355 6.521772,12.56668 6.506858,12.43738 C 6.496906,12.30808 6.48696,12.1763 6.47702,12.04202 C 6.472041,11.90775 6.469554,11.7884 6.46956,11.68396 L 6.439722,11.68396 C 6.196034,12.20614 5.855377,12.5816 5.41775,12.81037 C 4.985085,13.03416 4.465397,13.14605 3.858683,13.14605 C 3.351424,13.14605 2.911305,13.04161 2.538325,12.83274 C 2.170314,12.62388 1.864468,12.33295 1.620788,11.95997 C 1.382078,11.58698 1.203047,11.14687 1.083693,10.63961 C 0.969311,10.12738 0.912121,9.57039 0.912121,8.96865 C 0.912121,8.35696 0.971798,7.795 1.091153,7.28277 C 1.21548,6.77054 1.404457,6.33042 1.658086,5.96241 C 1.911713,5.58943 2.232477,5.29851 2.620381,5.08963 C 3.013253,4.88077 3.478238,4.77633 4.015336,4.77632 C 4.278906,4.77633 4.532534,4.80368 4.77622,4.85838 C 5.019897,4.91309 5.246173,4.99763 5.455048,5.11201 C 5.663913,5.2264 5.85289,5.3731 6.021981,5.55213 C 6.191061,5.73117 6.33528,5.9475 6.454641,6.20112 L 6.46956,6.20112 C 6.469554,6.15139 6.467067,6.07928 6.462101,5.98479 C 6.462094,5.88533 6.462094,5.77344 6.462101,5.6491 C 6.462094,5.52478 6.459608,5.39548 6.454641,5.2612 C 6.454635,5.12693 6.454635,4.99763 6.454641,4.8733 L 6.454641,1.92674 L 8.550799,1.92674 L 8.550799,11.23638 C 8.550799,11.62926 8.558249,11.97986 8.573179,12.28819 C 8.588089,12.59155 8.600529,12.82777 8.610479,12.99686 L 6.581455,12.99686 M 6.48448,8.91643 C 6.484473,8.38431 6.434742,7.94419 6.335287,7.59607 C 6.235819,7.24299 6.104032,6.96449 5.939925,6.76059 C 5.78078,6.55173 5.596776,6.40751 5.387911,6.32793 C 5.184009,6.24339 4.975139,6.20112 4.761301,6.20112 C 4.492749,6.20112 4.25404,6.25334 4.045174,6.35777 C 3.841274,6.46221 3.667215,6.62632 3.522999,6.85011 C 3.383749,7.0739 3.276827,7.35985 3.202234,7.70797 C 3.132608,8.05609 3.097796,8.47631 3.097799,8.96865 C 3.097796,10.79875 3.647323,11.7138 4.746381,11.7138 C 4.955247,11.7138 5.164117,11.66904 5.372992,11.57952 C 5.581857,11.49001 5.768348,11.33833 5.932465,11.12449 C 6.096572,10.91064 6.228359,10.62469 6.327827,10.26663 C 6.432256,9.90359 6.484473,9.45353 6.48448,8.91643 M 10.691719,3.47088 L 10.691719,1.92674 L 12.787879,1.92674 L 12.787879,3.47088 L 10.691719,3.47088 M 10.691719,12.99686 L 10.691719,4.92552 L 12.787879,4.92552 L 12.787879,12.99686 L 10.691719,12.99686 M 18.308029,16.23434 C 17.775899,16.23434 17.305939,16.17964 16.898149,16.07023 C 16.495329,15.96579 16.149699,15.8166 15.861259,15.62265 C 15.577789,15.43367 15.349029,15.20491 15.174969,14.93637 C 15.005889,14.67279 14.889019,14.38186 14.824369,14.06359 L 16.920529,13.81742 C 16.995119,14.14067 17.154259,14.3943 17.397949,14.5783 C 17.646599,14.76231 17.969849,14.85431 18.367699,14.85431 C 18.616349,14.85431 18.842629,14.8195 19.046529,14.74987 C 19.255399,14.68025 19.431939,14.5609 19.576169,14.39181 C 19.725349,14.2277 19.839729,14.00888 19.919309,13.73536 C 20.003849,13.46184 20.046119,13.12367 20.046119,12.72085 C 20.046119,12.5816 20.046119,12.43987 20.046119,12.29565 C 20.046119,12.15143 20.048599,12.01964 20.053579,11.90029 C 20.058549,11.76104 20.061039,11.62677 20.061039,11.49747 L 20.046119,11.49747 C 19.802439,12.01964 19.459289,12.3976 19.016689,12.63133 C 18.579059,12.86507 18.056879,12.98194 17.450169,12.98194 C 16.937929,12.98194 16.495329,12.88248 16.122349,12.68355 C 15.754339,12.47966 15.448489,12.19868 15.204809,11.84061 C 14.961129,11.47758 14.779609,11.0474 14.660259,10.55009 C 14.545879,10.04781 14.488679,9.4958 14.488689,8.89405 C 14.488679,8.27242 14.550849,7.71046 14.675179,7.20817 C 14.799499,6.70092 14.988479,6.26577 15.242109,5.90273 C 15.500709,5.5397 15.823959,5.26121 16.211859,5.06725 C 16.604739,4.86833 17.069719,4.76887 17.606819,4.76886 C 18.143909,4.76887 18.623809,4.88325 19.046529,5.11201 C 19.474209,5.34078 19.807409,5.71127 20.046119,6.2235 L 20.083419,6.2235 C 20.083419,6.11907 20.085899,5.99971 20.090879,5.86543 C 20.100819,5.72619 20.110769,5.59441 20.120719,5.47007 C 20.130659,5.34078 20.140609,5.2264 20.150559,5.12693 C 20.165469,5.02747 20.177899,4.96034 20.187859,4.92552 L 22.172119,4.92552 C 22.162169,5.10456 22.152219,5.3557 22.142289,5.67894 C 22.132329,6.0022 22.127359,6.3727 22.127369,6.79043 L 22.127369,12.75069 C 22.127359,13.33751 22.042819,13.84726 21.873739,14.27992 C 21.704639,14.71755 21.455989,15.08058 21.127769,15.36903 C 20.804509,15.65746 20.404179,15.87379 19.926769,16.01802 C 19.454319,16.16223 18.914739,16.23434 18.308029,16.23434 M 20.061039,8.84929 C 20.061039,8.34204 20.011309,7.91933 19.911849,7.58115 C 19.812379,7.24299 19.683079,6.97195 19.523949,6.76805 C 19.364799,6.56416 19.180799,6.41994 18.971929,6.33539 C 18.768029,6.25085 18.561649,6.20858 18.352779,6.20858 C 18.084229,6.20858 17.845519,6.2608 17.636659,6.36523 C 17.432759,6.46967 17.258699,6.6313 17.114479,6.85011 C 16.970259,7.06893 16.860849,7.34742 16.786259,7.68559 C 16.711659,8.02376 16.674359,8.42658 16.674359,8.89405 C 16.674359,9.76435 16.813609,10.42079 17.092099,10.8634 C 17.370589,11.306 17.785849,11.52731 18.337859,11.52731 C 18.546729,11.52731 18.753109,11.48752 18.957019,11.40795 C 19.165879,11.32341 19.352369,11.17919 19.516489,10.97529 C 19.680599,10.76642 19.812379,10.49042 19.911849,10.14727 C 20.011309,9.80413 20.061039,9.37147 20.061039,8.84929 M 24.268289,3.47088 L 24.268289,1.92674 L 26.364449,1.92674 L 26.364449,3.47088 L 24.268289,3.47088 M 24.268289,12.99686 L 24.268289,4.92552 L 26.364449,4.92552 L 26.364449,12.99686 L 24.268289,12.99686 M 35.733769,12.99686 L 31.959189,8.17046 L 30.661209,9.1626 L 30.661209,12.99686 L 28.460609,12.99686 L 28.460609,2.48621 L 30.661209,2.48621 L 30.661209,7.25293 L 35.398079,2.48621 L 37.964199,2.48621 L 33.473489,6.93216 L 38.329729,12.99686 L 35.733769,12.99686 M 41.410559,13.14605 C 41.022649,13.14605 40.674539,13.09383 40.366209,12.9894 C 40.062849,12.87999 39.804249,12.72334 39.590399,12.51944 C 39.376559,12.31057 39.212449,12.05446 39.098069,11.7511 C 38.983689,11.44774 38.926499,11.10211 38.926499,10.7142 C 38.926499,10.23679 39.008549,9.83646 39.172659,9.5132 C 39.341749,9.18498 39.570509,8.92141 39.858949,8.72248 C 40.147389,8.51859 40.485559,8.37188 40.873459,8.28236 C 41.261359,8.18787 41.674129,8.13814 42.111769,8.13317 L 43.849859,8.10333 L 43.849859,7.69305 C 43.849859,7.39964 43.822509,7.15596 43.767809,6.962 C 43.718069,6.76308 43.643479,6.60146 43.544019,6.47712 C 43.444549,6.3528 43.320219,6.26577 43.171039,6.21604 C 43.026809,6.16134 42.860209,6.13399 42.671239,6.13398 C 42.497179,6.13399 42.340529,6.15139 42.201279,6.1862 C 42.066999,6.22102 41.950139,6.28318 41.850679,6.37269 C 41.751209,6.45724 41.669159,6.57411 41.604509,6.72329 C 41.544829,6.86752 41.502559,7.05152 41.477699,7.27531 L 39.292019,7.17087 C 39.351699,6.81779 39.461099,6.49702 39.620239,6.20858 C 39.779379,5.91517 39.998199,5.66154 40.276689,5.44769 C 40.560159,5.23386 40.905789,5.06974 41.313579,4.95536 C 41.726349,4.83601 42.208739,4.77633 42.760759,4.77632 C 43.263029,4.77633 43.710609,4.8385 44.103489,4.96281 C 44.496359,5.08715 44.829559,5.27364 45.103089,5.52229 C 45.376599,5.76598 45.585469,6.06685 45.729699,6.42491 C 45.873909,6.78298 45.946019,7.19823 45.946029,7.67067 L 45.946029,10.60977 C 45.946019,10.79875 45.953479,10.96783 45.968409,11.11703 C 45.988289,11.26622 46.020619,11.39303 46.065379,11.49747 C 46.115099,11.59693 46.182239,11.67401 46.266789,11.72872 C 46.356299,11.77845 46.470679,11.80331 46.609929,11.80331 C 46.769069,11.80331 46.923229,11.7884 47.072429,11.75856 L 47.072429,12.89242 C 46.948099,12.92226 46.836199,12.94961 46.736749,12.97448 C 46.637279,12.99934 46.537819,13.01924 46.438359,13.03416 C 46.338889,13.04907 46.231969,13.06151 46.117599,13.07145 C 46.008179,13.0814 45.878879,13.08637 45.729699,13.08637 C 45.202539,13.08637 44.812149,12.95707 44.558529,12.69847 C 44.309869,12.43987 44.160679,12.05943 44.110949,11.55714 L 44.066189,11.55714 C 43.787699,12.05943 43.429629,12.44982 42.991999,12.72831 C 42.559339,13.0068 42.032189,13.14605 41.410559,13.14605 M 43.849859,9.25957 L 42.775679,9.27449 C 42.551879,9.28444 42.338039,9.30433 42.134149,9.33417 C 41.935219,9.35904 41.758669,9.41623 41.604509,9.50574 C 41.455309,9.59029 41.335959,9.71461 41.246449,9.87872 C 41.156929,10.04284 41.112169,10.26663 41.112169,10.55009 C 41.112169,10.93302 41.199199,11.21898 41.373259,11.40795 C 41.552289,11.59196 41.788509,11.68396 42.081929,11.68396 C 42.350469,11.68396 42.594149,11.62677 42.812969,11.51239 C 43.031789,11.39801 43.215789,11.24881 43.364989,11.06481 C 43.519149,10.87583 43.638499,10.6595 43.723049,10.41582 C 43.807589,10.17214 43.849859,9.92348 43.849859,9.66985 L 43.849859,9.25957 M 52.801449,12.99686 L 52.801449,8.46885 C 52.801439,8.15555 52.779059,7.8696 52.734309,7.61099 C 52.694519,7.34742 52.624889,7.12363 52.525439,6.93962 C 52.430939,6.75065 52.304129,6.60394 52.144999,6.4995 C 51.990819,6.39507 51.801849,6.34286 51.578059,6.34285 C 51.364219,6.34286 51.170259,6.40005 50.996209,6.51442 C 50.822149,6.62384 50.670469,6.78298 50.541169,6.99184 C 50.416839,7.19574 50.319869,7.44191 50.250249,7.73034 C 50.180619,8.01382 50.145809,8.32712 50.145809,8.67026 L 50.145809,12.99686 L 48.049649,12.99686 L 48.049649,6.73075 C 48.049649,6.5567 48.047159,6.37767 48.042189,6.19366 C 48.042189,6.00966 48.037209,5.8356 48.027269,5.67148 C 48.022299,5.5024 48.017319,5.35321 48.012349,5.2239 C 48.007379,5.08964 47.999919,4.99017 47.989969,4.92552 L 49.989159,4.92552 C 49.999099,4.9852 50.009049,5.08218 50.018999,5.21644 C 50.028939,5.34575 50.038889,5.48997 50.048829,5.6491 C 50.058779,5.80825 50.066239,5.96739 50.071209,6.12652 C 50.081159,6.28567 50.086129,6.41994 50.086129,6.52934 L 50.115969,6.52934 C 50.374569,5.91268 50.695329,5.46511 51.078269,5.1866 C 51.466159,4.90812 51.928659,4.76887 52.465759,4.76886 C 53.082419,4.76887 53.577239,4.92055 53.950229,5.2239 C 54.328179,5.5223 54.581809,5.95744 54.711119,6.52934 L 54.755869,6.52934 C 54.900089,6.19615 55.054249,5.91766 55.218369,5.69386 C 55.387449,5.47008 55.571449,5.29105 55.770389,5.15677 C 55.974269,5.01753 56.193089,4.91806 56.426829,4.85838 C 56.665529,4.79871 56.924129,4.76887 57.202639,4.76886 C 57.645229,4.76887 58.018219,4.84844 58.321589,5.00757 C 58.629909,5.16672 58.878559,5.38554 59.067549,5.66402 C 59.261489,5.94252 59.400739,6.27075 59.485289,6.6487 C 59.574789,7.02666 59.619549,7.43445 59.619559,7.87208 L 59.619559,12.99686 L 57.538319,12.99686 L 57.538319,8.46885 C 57.538309,8.15555 57.515929,7.8696 57.471189,7.61099 C 57.431389,7.34742 57.361769,7.12363 57.262319,6.93962 C 57.167819,6.75065 57.040999,6.60394 56.881869,6.4995 C 56.727699,6.39507 56.538719,6.34286 56.314939,6.34285 C 56.106059,6.34286 55.914599,6.39756 55.740549,6.50696 C 55.571449,6.6114 55.422259,6.76308 55.292969,6.962 C 55.168629,7.15596 55.071659,7.38969 55.002039,7.66321 C 54.932409,7.93673 54.892629,8.24009 54.882689,8.57329 L 54.882689,12.99686 L 52.801449,12.99686" />
  <g
     transform="matrix(5e-2,0,0,5e-2,54.809187,-14.15107)"
     id="layer1">
    <rect
       width="346"
       height="346"
       x="159.81975"
       y="283.88248"
       style="opacity:0;fill:#333333;fill-opacity:1;stroke:none"
       id="rect3476" />
    <path
       d="M 587.9088,485.6666 C 587.9088,566.56092 522.331,632.13873 441.43668,632.13873 C 360.54235,632.13873 294.96455,566.56092 294.96455,485.6666 C 294.96455,404.77228 360.54235,339.19448 441.43668,339.19448 C 522.331,339.19448 587.9088,404.77228 587.9088,485.6666 z"
       transform="translate(-109.11678,-28.284271)"
       style="fill:#000000;fill-opacity:1;fill-rule:evenodd;stroke:#000000;stroke-width:1;stroke-linecap:butt;stroke-linejoin:miter;stroke-miterlimit:4;stroke-dasharray:none;stroke-dashoffset:0;stroke-opacity:1"
       id="path13425" />
    <path
       d="M 587.9088,485.6666 C 587.9088,566.56092 522.331,632.13873 441.43668,632.13873 C 360.54235,632.13873 294.96455,566.56092 294.96455,485.6666 C 294.96455,404.77228 360.54235,339.19448 441.43668,339.19448 C 522.331,339.19448 587.9088,404.77228 587.9088,485.6666 z"
       transform="translate(-109.11678,-28.284271)"
       style="fill:url(#radialGradient2952);fill-opacity:1;fill-rule:evenodd;stroke:#000000;stroke-width:1;stroke-linecap:butt;stroke-linejoin:miter;stroke-miterlimit:4;stroke-dasharray:none;stroke-dashoffset:0;stroke-opacity:1"
       id="path13427" />
    <path
       d="M 587.9088,485.6666 C 587.9088,566.56092 522.331,632.13873 441.43668,632.13873 C 360.54235,632.13873 294.96455,566.56092 294.96455,485.6666 C 294.96455,404.77228 360.54235,339.19448 441.43668,339.19448 C 522.331,339.19448 587.9088,404.77228 587.9088,485.6666 z"
       transform="matrix(1.0005266,0,0,1.0005266,-109.34923,-28.540012)"
       style="fill:none;fill-opacity:1;fill-rule:evenodd;stroke:#1a1a1a;stroke-width:4.80197334;stroke-linecap:butt;stroke-linejoin:miter;stroke-miterlimit:4;stroke-dasharray:none;stroke-dashoffset:0;stroke-opacity:1"
       id="path13459" />
    <path
       d="M 587.9088,485.6666 C 587.9088,566.56092 522.331,632.13873 441.43668,632.13873 C 360.54235,632.13873 294.96455,566.56092 294.96455,485.6666 C 294.96455,404.77228 360.54235,339.19448 441.43668,339.19448 C 522.331,339.19448 587.9088,404.77228 587.9088,485.6666 z"
       transform="matrix(1.0548092,0,0,1.0548092,-133.31157,-54.90326)"
       style="fill:none;fill-opacity:1;fill-rule:evenodd;stroke:#404040;stroke-width:12.3245039;stroke-linecap:butt;stroke-linejoin:miter;stroke-miterlimit:4;stroke-dasharray:none;stroke-dashoffset:0;stroke-opacity:1"
       id="path14432" />
    <path
       d="M 587.9088,485.6666 C 587.9088,566.56092 522.331,632.13873 441.43668,632.13873 C 360.54235,632.13873 294.96455,566.56092 294.96455,485.6666 C 294.96455,404.77228 360.54235,339.19448 441.43668,339.19448 C 522.331,339.19448 587.9088,404.77228 587.9088,485.6666 z"
       transform="matrix(1.0141035,0,0,1.0141035,-115.34259,-35.133879)"
       style="fill:none;fill-opacity:1;fill-rule:evenodd;stroke:#000000;stroke-width:1.946154;stroke-linecap:butt;stroke-linejoin:miter;stroke-miterlimit:4;stroke-dasharray:none;stroke-dashoffset:0;stroke-opacity:1;filter:url(#filter17476)"
       id="path14430" />
    <path
       d="M 587.9088,485.6666 C 587.9088,566.56092 522.331,632.13873 441.43668,632.13873 C 360.54235,632.13873 294.96455,566.56092 294.96455,485.6666 C 294.96455,404.77228 360.54235,339.19448 441.43668,339.19448 C 522.331,339.19448 587.9088,404.77228 587.9088,485.6666 z"
       transform="matrix(0.8144266,0,0,0.8144266,-27.19787,61.84254)"
       style="opacity:1;fill:url(#linearGradient2954);fill-opacity:1;fill-rule:evenodd;stroke:none;stroke-width:1;stroke-linecap:butt;stroke-linejoin:miter;stroke-miterlimit:4;stroke-dasharray:none;stroke-dashoffset:0;stroke-opacity:1"
       id="path16418" />
    <path
       d="M 587.9088,485.6666 C 587.9088,566.56092 522.331,632.13873 441.43668,632.13873 C 360.54235,632.13873 294.96455,566.56092 294.96455,485.6666 C 294.96455,404.77228 360.54235,339.19448 441.43668,339.19448 C 522.331,339.19448 587.9088,404.77228 587.9088,485.6666 z"
       transform="matrix(0.1060122,-0.8074974,0.8074974,0.1060122,-106.65232,762.35472)"
       style="opacity:1;fill:url(#radialGradient2956);fill-opacity:1;fill-rule:evenodd;stroke:none;stroke-width:1;stroke-linecap:butt;stroke-linejoin:miter;stroke-miterlimit:4;stroke-dasharray:none;stroke-dashoffset:0;stroke-opacity:1"
       id="path16380" />
    <path
       d="M 587.9088,485.6666 C 587.9088,566.56092 522.331,632.13873 441.43668,632.13873 C 360.54235,632.13873 294.96455,566.56092 294.96455,485.6666 C 294.96455,404.77228 360.54235,339.19448 441.43668,339.19448 C 522.331,339.19448 587.9088,404.77228 587.9088,485.6666 z"
       transform="matrix(-4.221494e-2,-0.7227261,-0.7227261,4.221494e-2,701.95903,743.16923)"
       style="opacity:0.98000004;fill:url(#linearGradient2958);fill-opacity:1;fill-rule:evenodd;stroke:none;stroke-width:1;stroke-linecap:butt;stroke-linejoin:miter;stroke-miterlimit:4;stroke-dasharray:none;stroke-dashoffset:0;stroke-opacity:1"
       id="path16406" />
    <path
       d="M 587.9088,485.6666 C 587.9088,566.56092 522.331,632.13873 441.43668,632.13873 C 360.54235,632.13873 294.96455,566.56092 294.96455,485.6666 C 294.96455,404.77228 360.54235,339.19448 441.43668,339.19448 C 522.331,339.19448 587.9088,404.77228 587.9088,485.6666 z"
       transform="matrix(-4.7490282e-2,0.8130408,-0.8130408,-4.7490282e-2,748.15057,121.54076)"
       style="opacity:0.68152867;fill:url(#radialGradient2960);fill-opacity:1;fill-rule:evenodd;stroke:none;stroke-width:1;stroke-linecap:butt;stroke-linejoin:miter;stroke-miterlimit:4;stroke-dasharray:none;stroke-dashoffset:0;stroke-opacity:1"
       id="path16390" />
    <g
       transform="translate(-218,0)"
       id="g17417">
      <path
         d="M 75.811045,522.51827 L -4.5148612,547.52502 L -79.278059,508.94974 L -104.28481,428.62383 L -65.70952,353.86063 L 14.616387,328.85389 L 89.379584,367.42917 L 114.38633,447.75508 L 75.811045,522.51827 z"
         transform="matrix(0.2940643,-7.3031514e-2,7.3031514e-2,0.2940643,515.95209,330.27289)"
         style="opacity:1;fill:#1a1a1a;fill-opacity:1;fill-rule:evenodd;stroke:none;stroke-width:5;stroke-linecap:butt;stroke-linejoin:miter;stroke-miterlimit:4;stroke-dasharray:none;stroke-dashoffset:0;stroke-opacity:1"
         id="path16404" />
      <path
         d="M 75.811045,522.51827 L -4.5148612,547.52502 L -79.278059,508.94974 L -104.28481,428.62383 L -65.70952,353.86063 L 14.616387,328.85389 L 89.379584,367.42917 L 114.38633,447.75508 L 75.811045,522.51827 z"
         transform="matrix(9.9838139e-2,0,0,9.9838139e-2,548.93472,415.01188)"
         style="opacity:1;fill:#000000;fill-opacity:1;fill-rule:evenodd;stroke:none;stroke-width:5;stroke-linecap:butt;stroke-linejoin:miter;stroke-miterlimit:4;stroke-dasharray:none;stroke-dashoffset:0;stroke-opacity:1"
         id="path17397" />
      <path
         d="M 75.811045,522.51827 L -4.5148612,547.52502 L -79.278059,508.94974 L -104.28481,428.62383 L -65.70952,353.86063 L 14.616387,328.85389 L 89.379584,367.42917 L 114.38633,447.75508 L 75.811045,522.51827 z"
         transform="matrix(8.3579579e-2,0,0,8.3579579e-2,549.01683,422.13621)"
         style="opacity:1;fill:#ffffff;fill-opacity:1;fill-rule:evenodd;stroke:none;stroke-width:5;stroke-linecap:butt;stroke-linejoin:miter;stroke-miterlimit:4;stroke-dasharray:none;stroke-dashoffset:0;stroke-opacity:1"
         id="path17399" />
      <path
         d="M 544.28069,425.66369 L 543.14946,450.87385"
         style="fill:none;fill-rule:evenodd;stroke:#000000;stroke-width:1px;stroke-linecap:butt;stroke-linejoin:miter;stroke-opacity:1"
         id="path17401" />
      <path
         d="M 522.46421,438.91518 L 539.75579,457.8228"
         style="fill:none;fill-rule:evenodd;stroke:#000000;stroke-width:1px;stroke-linecap:butt;stroke-linejoin:miter;stroke-opacity:1"
         id="path17403" />
      <path
         d="M 516.80809,463.80213 L 541.53343,465.41816"
         style="fill:none;fill-rule:evenodd;stroke:#000000;stroke-width:1px;stroke-linecap:butt;stroke-linejoin:miter;stroke-opacity:1"
         id="path17405" />
      <path
         d="M 530.38278,485.78021 L 548.48238,468.32703"
         style="fill:none;fill-rule:evenodd;stroke:#000000;stroke-width:1px;stroke-linecap:butt;stroke-linejoin:miter;stroke-opacity:1"
         id="path17407" />
      <path
         d="M 554.62331,491.27473 L 555.75454,466.87259"
         style="fill:none;fill-rule:evenodd;stroke:#000000;stroke-width:1px;stroke-linecap:butt;stroke-linejoin:miter;stroke-opacity:1"
         id="path17409" />
      <path
         d="M 576.43979,478.18484 L 559.30982,459.92364"
         style="fill:none;fill-rule:evenodd;stroke:#000000;stroke-width:1px;stroke-linecap:butt;stroke-linejoin:miter;stroke-opacity:1"
         id="path17411" />
      <path
         d="M 581.93431,453.13629 L 557.04737,452.48988"
         style="fill:none;fill-rule:evenodd;stroke:#000000;stroke-width:1px;stroke-linecap:butt;stroke-linejoin:miter;stroke-opacity:1"
         id="path17413" />
      <path
         d="M 569.16763,431.80463 L 550.42162,449.09621"
         style="fill:none;fill-rule:evenodd;stroke:#000000;stroke-width:1px;stroke-linecap:butt;stroke-linejoin:miter;stroke-opacity:1"
         id="path17415" />
    </g>
    <path
       d="M 587.9088,485.6666 C 587.9088,566.56092 522.331,632.13873 441.43668,632.13873 C 360.54235,632.13873 294.96455,566.56092 294.96455,485.6666 C 294.96455,404.77228 360.54235,339.19448 441.43668,339.19448 C 522.331,339.19448 587.9088,404.77228 587.9088,485.6666 z"
       transform="matrix(0.6131346,0.1455906,-0.1455906,0.6131346,133.01457,95.334363)"
       style="fill:url(#radialGradient2962);fill-opacity:1;fill-rule:evenodd;stroke:none;stroke-width:1;stroke-linecap:butt;stroke-linejoin:miter;stroke-miterlimit:4;stroke-dasharray:none;stroke-dashoffset:0;stroke-opacity:1"
       id="path17500" />
    <path
       d="M 587.9088,485.6666 C 587.9088,566.56092 522.331,632.13873 441.43668,632.13873 C 360.54235,632.13873 294.96455,566.56092 294.96455,485.6666 C 294.96455,404.77228 360.54235,339.19448 441.43668,339.19448 C 522.331,339.19448 587.9088,404.77228 587.9088,485.6666 z"
       transform="matrix(0.3424146,-0.5292128,0.5292128,0.3424146,-74.887556,524.69696)"
       style="opacity:1;fill:url(#radialGradient2964);fill-opacity:1;fill-rule:evenodd;stroke:none;stroke-width:1;stroke-linecap:butt;stroke-linejoin:miter;stroke-miterlimit:4;stroke-dasharray:none;stroke-dashoffset:0;stroke-opacity:1"
       id="path17430" />
    <path
       d="M 587.9088,485.6666 C 587.9088,566.56092 522.331,632.13873 441.43668,632.13873 C 360.54235,632.13873 294.96455,566.56092 294.96455,485.6666 C 294.96455,404.77228 360.54235,339.19448 441.43668,339.19448 C 522.331,339.19448 587.9088,404.77228 587.9088,485.6666 z"
       transform="matrix(5.6460221e-2,-0.4300588,0.4300588,5.6460221e-2,100.29527,619.80523)"
       style="fill:url(#radialGradient2966);fill-opacity:1;fill-rule:evenodd;stroke:none;stroke-width:1;stroke-linecap:butt;stroke-linejoin:miter;stroke-miterlimit:4;stroke-dasharray:none;stroke-dashoffset:0;stroke-opacity:1"
       id="path17434" />
    <path
       d="M 587.9088,485.6666 C 587.9088,566.56092 522.331,632.13873 441.43668,632.13873 C 360.54235,632.13873 294.96455,566.56092 294.96455,485.6666 C 294.96455,404.77228 360.54235,339.19448 441.43668,339.19448 C 522.331,339.19448 587.9088,404.77228 587.9088,485.6666 z"
       transform="matrix(0.1060122,-0.8074974,0.8074974,0.1060122,-106.65232,762.35472)"
       style="opacity:0.52320676;fill:none;fill-opacity:1;fill-rule:evenodd;stroke:#000000;stroke-width:2.45571566;stroke-linecap:butt;stroke-linejoin:miter;stroke-miterlimit:4;stroke-dasharray:none;stroke-dashoffset:0;stroke-opacity:1"
       id="path17470" />
    <path
       d="M 587.9088,485.6666 C 587.9088,566.56092 522.331,632.13873 441.43668,632.13873 C 360.54235,632.13873 294.96455,566.56092 294.96455,485.6666 C 294.96455,404.77228 360.54235,339.19448 441.43668,339.19448 C 522.331,339.19448 587.9088,404.77228 587.9088,485.6666 z"
       transform="matrix(0.9970981,0,0,0.9970981,-107.83581,-26.874948)"
       style="fill:none;fill-opacity:1;fill-rule:evenodd;stroke:#000000;stroke-width:3.93194366;stroke-linecap:butt;stroke-linejoin:miter;stroke-miterlimit:4;stroke-dasharray:none;stroke-dashoffset:0;stroke-opacity:1"
       id="path17480" />
    <path
       d="M 587.9088,485.6666 C 587.9088,566.56092 522.331,632.13873 441.43668,632.13873 C 360.54235,632.13873 294.96455,566.56092 294.96455,485.6666 C 294.96455,404.77228 360.54235,339.19448 441.43668,339.19448 C 522.331,339.19448 587.9088,404.77228 587.9088,485.6666 z"
       transform="matrix(0.1274,-0.9704088,0.9704088,0.1274,-195.21432,823.88245)"
       style="opacity:0.52320676;fill:none;fill-opacity:1;fill-rule:evenodd;stroke:#000000;stroke-width:2.45571566;stroke-linecap:butt;stroke-linejoin:miter;stroke-miterlimit:4;stroke-dasharray:none;stroke-dashoffset:0;stroke-opacity:1"
       id="path17482" />
    <path
       d="M 587.9088,485.6666 C 587.9088,566.56092 522.331,632.13873 441.43668,632.13873 C 360.54235,632.13873 294.96455,566.56092 294.96455,485.6666 C 294.96455,404.77228 360.54235,339.19448 441.43668,339.19448 C 522.331,339.19448 587.9088,404.77228 587.9088,485.6666 z"
       transform="matrix(0.1071514,-0.8161752,0.8161752,0.1071514,-111.36972,765.63209)"
       style="opacity:0.52320676;fill:none;fill-opacity:1;fill-rule:evenodd;stroke:#000000;stroke-width:2.45571566;stroke-linecap:butt;stroke-linejoin:miter;stroke-miterlimit:4;stroke-dasharray:none;stroke-dashoffset:0;stroke-opacity:1;filter:url(#filter17486)"
       id="path17484" />
    <path
       d="M 587.9088,485.6666 C 587.9088,566.56092 522.331,632.13873 441.43668,632.13873 C 360.54235,632.13873 294.96455,566.56092 294.96455,485.6666 C 294.96455,404.77228 360.54235,339.19448 441.43668,339.19448 C 522.331,339.19448 587.9088,404.77228 587.9088,485.6666 z"
       transform="matrix(-0.776793,0.3713236,-0.3713236,-0.776793,855.60919,670.69442)"
       style="opacity:0;fill:none;fill-opacity:1;fill-rule:evenodd;stroke:#000000;stroke-width:2.45571566;stroke-linecap:butt;stroke-linejoin:miter;stroke-miterlimit:4;stroke-dasharray:none;stroke-dashoffset:0;stroke-opacity:1"
       id="path2947" />
    <text
       style="font-size:10px;font-style:normal;font-weight:normal;line-height:125%;fill:#f9f9f9;fill-opacity:1;stroke:none;stroke-width:1px;stroke-linecap:butt;stroke-linejoin:miter;stroke-opacity:1;font-family:Bitstream Vera Sans"
       id="text17490"
       xml:space="preserve"
       sodipodi:linespacing="125%"><textPath
         xlink:href="#path17494"
         style="font-size:20px;font-family:Liberation Sans"
         id="textPath17496">1:1,8     f=50mm    <tspan
   style="font-size:20px;font-style:normal;font-variant:normal;font-weight:bold;font-stretch:normal;text-align:start;line-height:125%;writing-mode:lr-tb;text-anchor:start;font-family:Liberation Sans"
   id="tspan2318">digiKam</tspan>    made by   OPEN SOURCE            www.digikam.org</textPath></text>
  </g>
</svg>
