<?xml version="1.0" encoding="UTF-8" standalone="no"?>
<!-- Created with Inkscape (http://www.inkscape.org/) -->
<svg
   xmlns:svg="http://www.w3.org/2000/svg"
   xmlns="http://www.w3.org/2000/svg"
   xmlns:xlink="http://www.w3.org/1999/xlink"
   xmlns:sodipodi="http://sodipodi.sourceforge.net/DTD/sodipodi-0.dtd"
   xmlns:inkscape="http://www.inkscape.org/namespaces/inkscape"
   version="1.0"
   width="80.160004"
   height="17.255257"
   id="svg2">
  <defs
     id="defs4">
    <linearGradient
       x1="441.43668"
       y1="544.70605"
       x2="433.3645"
       y2="415.34024"
       id="linearGradient4237"
       xlink:href="#linearGradient16420"
       gradientUnits="userSpaceOnUse" />
    <radialGradient
       cx="443.9173"
       cy="654.35059"
       r="146.47212"
       fx="443.9173"
       fy="654.35059"
       id="radialGradient17551"
       xlink:href="#linearGradient16384"
       gradientUnits="userSpaceOnUse"
       gradientTransform="matrix(-0.1050143,-2.8532985,1.4143989,-5.2056269e-2,-434.97782,1955.0422)" />
    <radialGradient
       cx="443.9173"
       cy="654.35059"
       r="146.47212"
       fx="443.9173"
       fy="654.35059"
       id="radialGradient17549"
       xlink:href="#linearGradient16384"
       gradientUnits="userSpaceOnUse"
       gradientTransform="matrix(-0.1050143,-2.8532985,1.4143989,-5.2056269e-2,-434.97782,1955.0422)" />
    <radialGradient
       cx="443.9173"
       cy="654.35059"
       r="146.47212"
       fx="443.9173"
       fy="654.35059"
       id="radialGradient17547"
       xlink:href="#linearGradient16394"
       gradientUnits="userSpaceOnUse"
       gradientTransform="matrix(-0.1050143,-2.8532985,1.4143989,-5.2056269e-2,-434.97782,1955.0422)" />
    <radialGradient
       cx="443.9173"
       cy="654.35059"
       r="146.47212"
       fx="443.9173"
       fy="654.35059"
       id="radialGradient17545"
       xlink:href="#linearGradient16384"
       gradientUnits="userSpaceOnUse"
       gradientTransform="matrix(-0.1050143,-2.8532985,1.4143989,-5.2056269e-2,-434.97782,1955.0422)" />
    <linearGradient
       x1="593.0257"
       y1="475.22482"
       x2="295.20978"
       y2="494.20782"
       id="linearGradient17543"
       xlink:href="#linearGradient16410"
       gradientUnits="userSpaceOnUse" />
    <radialGradient
       cx="443.9173"
       cy="654.35059"
       r="146.47212"
       fx="443.9173"
       fy="654.35059"
       id="radialGradient17539"
       xlink:href="#linearGradient16394"
       gradientUnits="userSpaceOnUse"
       gradientTransform="matrix(-0.1050143,-2.8532985,1.4143989,-5.2056269e-2,-434.97782,1955.0422)" />
    <radialGradient
       cx="442.44681"
       cy="490.71738"
       r="146.97212"
       fx="442.44681"
       fy="490.71738"
       id="radialGradient17537"
       xlink:href="#linearGradient13429"
       gradientUnits="userSpaceOnUse"
       gradientTransform="matrix(0.7422936,0.6735628,-0.6719898,0.7405603,443.77845,-170.70416)" />
    <radialGradient
       cx="443.9173"
       cy="654.35059"
       r="146.47212"
       fx="443.9173"
       fy="654.35059"
       id="radialGradient17502"
       xlink:href="#linearGradient16394"
       gradientUnits="userSpaceOnUse"
       gradientTransform="matrix(-0.1050143,-2.8532985,1.4143989,-5.2056269e-2,-434.97782,1955.0422)" />
    <filter
       id="filter17486">
      <feGaussianBlur
         inkscape:collect="always"
         stdDeviation="1.4771469"
         id="feGaussianBlur17488" />
    </filter>
    <filter
       id="filter17476">
      <feGaussianBlur
         inkscape:collect="always"
         stdDeviation="1.474452"
         id="feGaussianBlur17478" />
    </filter>
    <radialGradient
       cx="443.9173"
       cy="654.35059"
       r="146.47212"
       fx="443.9173"
       fy="654.35059"
       id="radialGradient17465"
       xlink:href="#linearGradient16384"
       gradientUnits="userSpaceOnUse"
       gradientTransform="matrix(-0.1050143,-2.8532985,1.4143989,-5.2056269e-2,-434.97782,1955.0422)" />
    <radialGradient
       cx="443.9173"
       cy="654.35059"
       r="146.47212"
       fx="443.9173"
       fy="654.35059"
       id="radialGradient17463"
       xlink:href="#linearGradient16384"
       gradientUnits="userSpaceOnUse"
       gradientTransform="matrix(-0.1050143,-2.8532985,1.4143989,-5.2056269e-2,-434.97782,1955.0422)" />
    <radialGradient
       cx="443.9173"
       cy="654.35059"
       r="146.47212"
       fx="443.9173"
       fy="654.35059"
       id="radialGradient17461"
       xlink:href="#linearGradient16384"
       gradientUnits="userSpaceOnUse"
       gradientTransform="matrix(-0.1050143,-2.8532985,1.4143989,-5.2056269e-2,-434.97782,1955.0422)" />
    <radialGradient
       cx="441.24957"
       cy="482.12329"
       r="146.47212"
       fx="441.24957"
       fy="482.12329"
       id="radialGradient16426"
       xlink:href="#linearGradient16420"
       gradientUnits="userSpaceOnUse"
       gradientTransform="matrix(2.5034178,0.9111717,-0.7208221,1.9804425,-315.85729,-874.74831)" />
    <linearGradient
       x1="593.0257"
       y1="475.22482"
       x2="295.20978"
       y2="494.20782"
       id="linearGradient16416"
       xlink:href="#linearGradient16410"
       gradientUnits="userSpaceOnUse" />
    <radialGradient
       cx="443.9173"
       cy="654.35059"
       r="146.47212"
       fx="443.9173"
       fy="654.35059"
       id="radialGradient16392"
       xlink:href="#linearGradient16394"
       gradientUnits="userSpaceOnUse"
       gradientTransform="matrix(-0.1050143,-2.8532985,1.4143989,-5.2056269e-2,-434.97782,1955.0422)" />
    <radialGradient
       cx="442.44681"
       cy="490.71738"
       r="146.97212"
       fx="442.44681"
       fy="490.71738"
       id="radialGradient13435"
       xlink:href="#linearGradient13429"
       gradientUnits="userSpaceOnUse"
       gradientTransform="matrix(0.7422936,0.6735628,-0.6719898,0.7405603,443.77845,-170.70416)" />
    <linearGradient
       id="linearGradient13429">
      <stop
         style="stop-color:#000000;stop-opacity:1"
         offset="0"
         id="stop13431" />
      <stop
         style="stop-color:#666666;stop-opacity:1"
         offset="0.5"
         id="stop13437" />
      <stop
         style="stop-color:#7f7f7f;stop-opacity:0"
         offset="1"
         id="stop13433" />
    </linearGradient>
    <linearGradient
       id="linearGradient16372">
      <stop
         style="stop-color:#0062ea;stop-opacity:1"
         offset="0"
         id="stop16374" />
      <stop
         style="stop-color:#0062ea;stop-opacity:0"
         offset="1"
         id="stop16376" />
    </linearGradient>
    <linearGradient
       id="linearGradient16384">
      <stop
         style="stop-color:#ffb08d;stop-opacity:1"
         offset="0"
         id="stop16386" />
      <stop
         style="stop-color:#3c00ff;stop-opacity:0"
         offset="1"
         id="stop16388" />
    </linearGradient>
    <linearGradient
       id="linearGradient16394">
      <stop
         style="stop-color:#00ff14;stop-opacity:1"
         offset="0"
         id="stop16396" />
      <stop
         style="stop-color:#ffffff;stop-opacity:0"
         offset="1"
         id="stop16398" />
    </linearGradient>
    <linearGradient
       id="linearGradient16410">
      <stop
         style="stop-color:#ffffff;stop-opacity:1"
         offset="0"
         id="stop16412" />
      <stop
         style="stop-color:#ffffff;stop-opacity:0"
         offset="1"
         id="stop16414" />
    </linearGradient>
    <linearGradient
       id="linearGradient16420">
      <stop
         style="stop-color:#000000;stop-opacity:1"
         offset="0"
         id="stop16422" />
      <stop
         style="stop-color:#000000;stop-opacity:0"
         offset="1"
         id="stop16424" />
    </linearGradient>
    <inkscape:perspective
       sodipodi:type="inkscape:persp3d"
       inkscape:vp_x="0 : 159.50014 : 1"
       inkscape:vp_y="0 : 1000 : 0"
       inkscape:vp_z="319.00027 : 159.50014 : 1"
       inkscape:persp3d-origin="159.50014 : 106.33342 : 1"
       id="perspective77" />
    <linearGradient
       id="linearGradient4278">
      <stop
         style="stop-color:#000000;stop-opacity:1"
         offset="0"
         id="stop4280" />
      <stop
         style="stop-color:#ffffff;stop-opacity:0"
         offset="1"
         id="stop4282" />
    </linearGradient>
  </defs>
  <g
     transform="translate(-91.820881,-510.36618)"
     id="layer1">
    <path
       d="M 98.402336,523.36304 C 98.392383,523.32325 98.379951,523.25363 98.365038,523.15417 C 98.355085,523.04973 98.342653,522.93286 98.327739,522.80356 C 98.317787,522.67426 98.307841,522.54248 98.297901,522.4082 C 98.292922,522.27393 98.290435,522.15458 98.290441,522.05014 L 98.260603,522.05014 C 98.016915,522.57232 97.676258,522.94778 97.238631,523.17655 C 96.805966,523.40034 96.286278,523.51223 95.679564,523.51223 C 95.172305,523.51223 94.732186,523.40779 94.359206,523.19892 C 93.991195,522.99006 93.685349,522.69913 93.441669,522.32615 C 93.202959,521.95316 93.023928,521.51305 92.904574,521.00579 C 92.790192,520.49356 92.733002,519.93657 92.733002,519.33483 C 92.733002,518.72314 92.792679,518.16118 92.912034,517.64895 C 93.036361,517.13672 93.225338,516.6966 93.478967,516.32859 C 93.732594,515.95561 94.053358,515.66469 94.441262,515.45581 C 94.834134,515.24695 95.299119,515.14251 95.836217,515.1425 C 96.099787,515.14251 96.353415,515.16986 96.597101,515.22456 C 96.840778,515.27927 97.067054,515.36381 97.275929,515.47819 C 97.484794,515.59258 97.673771,515.73928 97.842862,515.91831 C 98.011942,516.09735 98.156161,516.31368 98.275522,516.5673 L 98.290441,516.5673 C 98.290435,516.51757 98.287948,516.44546 98.282982,516.35097 C 98.282975,516.25151 98.282975,516.13962 98.282982,516.01528 C 98.282975,515.89096 98.280489,515.76166 98.275522,515.62738 C 98.275516,515.49311 98.275516,515.36381 98.275522,515.23948 L 98.275522,512.29292 L 100.37168,512.29292 L 100.37168,521.60256 C 100.37168,521.99544 100.37913,522.34604 100.39406,522.65437 C 100.40897,522.95773 100.42141,523.19395 100.43136,523.36304 L 98.402336,523.36304 M 98.305361,519.28261 C 98.305354,518.75049 98.255623,518.31037 98.156168,517.96225 C 98.0567,517.60917 97.924913,517.33067 97.760806,517.12677 C 97.601661,516.91791 97.417657,516.77369 97.208792,516.69411 C 97.00489,516.60957 96.79602,516.5673 96.582182,516.5673 C 96.31363,516.5673 96.074921,516.61952 95.866055,516.72395 C 95.662155,516.82839 95.488096,516.9925 95.34388,517.21629 C 95.20463,517.44008 95.097708,517.72603 95.023115,518.07415 C 94.953489,518.42227 94.918677,518.84249 94.91868,519.33483 C 94.918677,521.16493 95.468204,522.07998 96.567262,522.07998 C 96.776128,522.07998 96.984998,522.03522 97.193873,521.9457 C 97.402738,521.85619 97.589229,521.70451 97.753346,521.49067 C 97.917453,521.27682 98.04924,520.99087 98.148708,520.63281 C 98.253137,520.26977 98.305354,519.81971 98.305361,519.28261 M 102.5126,513.83706 L 102.5126,512.29292 L 104.60876,512.29292 L 104.60876,513.83706 L 102.5126,513.83706 M 102.5126,523.36304 L 102.5126,515.2917 L 104.60876,515.2917 L 104.60876,523.36304 L 102.5126,523.36304 M 110.12891,526.60052 C 109.59678,526.60052 109.12682,526.54582 108.71903,526.43641 C 108.31621,526.33197 107.97058,526.18278 107.68214,525.98883 C 107.39867,525.79985 107.16991,525.57109 106.99585,525.30255 C 106.82677,525.03897 106.7099,524.74804 106.64525,524.42977 L 108.74141,524.1836 C 108.816,524.50685 108.97514,524.76048 109.21883,524.94448 C 109.46748,525.12849 109.79073,525.22049 110.18858,525.22049 C 110.43723,525.22049 110.66351,525.18568 110.86741,525.11605 C 111.07628,525.04643 111.25282,524.92708 111.39705,524.75799 C 111.54623,524.59388 111.66061,524.37506 111.74019,524.10154 C 111.82473,523.82802 111.867,523.48985 111.867,523.08703 C 111.867,522.94778 111.867,522.80605 111.867,522.66183 C 111.867,522.51761 111.86948,522.38582 111.87446,522.26647 C 111.87943,522.12722 111.88192,521.99295 111.88192,521.86365 L 111.867,521.86365 C 111.62332,522.38582 111.28017,522.76378 110.83757,522.99751 C 110.39994,523.23125 109.87776,523.34812 109.27105,523.34812 C 108.75881,523.34812 108.31621,523.24866 107.94323,523.04973 C 107.57522,522.84584 107.26937,522.56486 107.02569,522.20679 C 106.78201,521.84376 106.60049,521.41358 106.48114,520.91627 C 106.36676,520.41399 106.30956,519.86198 106.30957,519.26023 C 106.30956,518.6386 106.37173,518.07664 106.49606,517.57435 C 106.62038,517.0671 106.80936,516.63195 107.06299,516.26891 C 107.32159,515.90588 107.64484,515.62739 108.03274,515.43343 C 108.42562,515.23451 108.8906,515.13505 109.4277,515.13504 C 109.96479,515.13505 110.44469,515.24943 110.86741,515.47819 C 111.29509,515.70696 111.62829,516.07745 111.867,516.58968 L 111.9043,516.58968 C 111.9043,516.48525 111.90678,516.36589 111.91176,516.23161 C 111.9217,516.09237 111.93165,515.96059 111.9416,515.83625 C 111.95154,515.70696 111.96149,515.59258 111.97144,515.49311 C 111.98635,515.39365 111.99878,515.32652 112.00874,515.2917 L 113.993,515.2917 C 113.98305,515.47074 113.9731,515.72188 113.96317,516.04512 C 113.95321,516.36838 113.94824,516.73888 113.94825,517.15661 L 113.94825,523.11687 C 113.94824,523.70369 113.8637,524.21344 113.69462,524.6461 C 113.52552,525.08373 113.27687,525.44676 112.94865,525.73521 C 112.62539,526.02364 112.22506,526.23997 111.74765,526.3842 C 111.2752,526.52841 110.73562,526.60052 110.12891,526.60052 M 111.88192,519.21547 C 111.88192,518.70822 111.83219,518.28551 111.73273,517.94733 C 111.63326,517.60917 111.50396,517.33813 111.34483,517.13423 C 111.18568,516.93034 111.00168,516.78612 110.79281,516.70157 C 110.58891,516.61703 110.38253,516.57476 110.17366,516.57476 C 109.90511,516.57476 109.6664,516.62698 109.45754,516.73141 C 109.25364,516.83585 109.07958,516.99748 108.93536,517.21629 C 108.79114,517.43511 108.68173,517.7136 108.60714,518.05177 C 108.53254,518.38994 108.49524,518.79276 108.49524,519.26023 C 108.49524,520.13053 108.63449,520.78697 108.91298,521.22958 C 109.19147,521.67218 109.60673,521.89349 110.15874,521.89349 C 110.36761,521.89349 110.57399,521.8537 110.7779,521.77413 C 110.98676,521.68959 111.17325,521.54537 111.33737,521.34147 C 111.50148,521.1326 111.63326,520.8566 111.73273,520.51345 C 111.83219,520.17031 111.88192,519.73765 111.88192,519.21547 M 116.08917,513.83706 L 116.08917,512.29292 L 118.18533,512.29292 L 118.18533,513.83706 L 116.08917,513.83706 M 116.08917,523.36304 L 116.08917,515.2917 L 118.18533,515.2917 L 118.18533,523.36304 L 116.08917,523.36304 M 127.55465,523.36304 L 123.78007,518.53664 L 122.48209,519.52878 L 122.48209,523.36304 L 120.28149,523.36304 L 120.28149,512.85239 L 122.48209,512.85239 L 122.48209,517.61911 L 127.21896,512.85239 L 129.78508,512.85239 L 125.29437,517.29834 L 130.15061,523.36304 L 127.55465,523.36304 M 133.23144,523.51223 C 132.84353,523.51223 132.49542,523.46001 132.18709,523.35558 C 131.88373,523.24617 131.62513,523.08952 131.41128,522.88562 C 131.19744,522.67675 131.03333,522.42064 130.91895,522.11728 C 130.80457,521.81392 130.74738,521.46829 130.74738,521.08038 C 130.74738,520.60297 130.82943,520.20264 130.99354,519.87938 C 131.16263,519.55116 131.39139,519.28759 131.67983,519.08866 C 131.96827,518.88477 132.30644,518.73806 132.69434,518.64854 C 133.08224,518.55405 133.49501,518.50432 133.93265,518.49935 L 135.67074,518.46951 L 135.67074,518.05923 C 135.67074,517.76582 135.64339,517.52214 135.58869,517.32818 C 135.53895,517.12926 135.46436,516.96764 135.3649,516.8433 C 135.26543,516.71898 135.1411,516.63195 134.99192,516.58222 C 134.84769,516.52752 134.68109,516.50017 134.49212,516.50016 C 134.31806,516.50017 134.16141,516.51757 134.02216,516.55238 C 133.88788,516.5872 133.77102,516.64936 133.67156,516.73887 C 133.57209,516.82342 133.49004,516.94029 133.42539,517.08947 C 133.36571,517.2337 133.32344,517.4177 133.29858,517.64149 L 131.1129,517.53705 C 131.17258,517.18397 131.28198,516.8632 131.44112,516.57476 C 131.60026,516.28135 131.81908,516.02772 132.09757,515.81387 C 132.38104,515.60004 132.72667,515.43592 133.13446,515.32154 C 133.54723,515.20219 134.02962,515.14251 134.58164,515.1425 C 135.08391,515.14251 135.53149,515.20468 135.92437,515.32899 C 136.31724,515.45333 136.65044,515.63982 136.92397,515.88847 C 137.19748,516.13216 137.40635,516.43303 137.55058,516.79109 C 137.69479,517.14916 137.7669,517.56441 137.76691,518.03685 L 137.76691,520.97595 C 137.7669,521.16493 137.77436,521.33401 137.78929,521.48321 C 137.80917,521.6324 137.8415,521.75921 137.88626,521.86365 C 137.93598,521.96311 138.00312,522.04019 138.08767,522.0949 C 138.17718,522.14463 138.29156,522.16949 138.43081,522.16949 C 138.58995,522.16949 138.74411,522.15458 138.89331,522.12474 L 138.89331,523.2586 C 138.76898,523.28844 138.65708,523.31579 138.55763,523.34066 C 138.45816,523.36552 138.3587,523.38542 138.25924,523.40034 C 138.15977,523.41525 138.05285,523.42769 137.93848,523.43763 C 137.82906,523.44758 137.69976,523.45255 137.55058,523.45255 C 137.02342,523.45255 136.63303,523.32325 136.37941,523.06465 C 136.13075,522.80605 135.98156,522.42561 135.93183,521.92332 L 135.88707,521.92332 C 135.60858,522.42561 135.25051,522.816 134.81288,523.09449 C 134.38022,523.37298 133.85307,523.51223 133.23144,523.51223 M 135.67074,519.62575 L 134.59656,519.64067 C 134.37276,519.65062 134.15892,519.67051 133.95503,519.70035 C 133.7561,519.72522 133.57955,519.78241 133.42539,519.87192 C 133.27619,519.95647 133.15684,520.08079 133.06733,520.2449 C 132.97781,520.40902 132.93305,520.63281 132.93305,520.91627 C 132.93305,521.2992 133.02008,521.58516 133.19414,521.77413 C 133.37317,521.95814 133.60939,522.05014 133.90281,522.05014 C 134.17135,522.05014 134.41503,521.99295 134.63385,521.87857 C 134.85267,521.76419 135.03667,521.61499 135.18587,521.43099 C 135.34003,521.24201 135.45938,521.02568 135.54393,520.782 C 135.62847,520.53832 135.67074,520.28966 135.67074,520.03603 L 135.67074,519.62575 M 144.62233,523.36304 L 144.62233,518.83503 C 144.62232,518.52173 144.59994,518.23578 144.55519,517.97717 C 144.5154,517.7136 144.44577,517.48981 144.34632,517.3058 C 144.25182,517.11683 144.12501,516.97012 143.96588,516.86568 C 143.8117,516.76125 143.62273,516.70904 143.39894,516.70903 C 143.1851,516.70904 142.99114,516.76623 142.81709,516.8806 C 142.64303,516.99002 142.49135,517.14916 142.36205,517.35802 C 142.23772,517.56192 142.14075,517.80809 142.07113,518.09652 C 142.0015,518.38 141.96669,518.6933 141.96669,519.03644 L 141.96669,523.36304 L 139.87053,523.36304 L 139.87053,517.09693 C 139.87053,516.92288 139.86804,516.74385 139.86307,516.55984 C 139.86307,516.37584 139.85809,516.20178 139.84815,516.03766 C 139.84318,515.86858 139.8382,515.71939 139.83323,515.59008 C 139.82826,515.45582 139.8208,515.35635 139.81085,515.2917 L 141.81004,515.2917 C 141.81998,515.35138 141.82993,515.44836 141.83988,515.58262 C 141.84982,515.71193 141.85977,515.85615 141.86971,516.01528 C 141.87966,516.17443 141.88712,516.33357 141.89209,516.4927 C 141.90204,516.65185 141.90701,516.78612 141.90701,516.89552 L 141.93685,516.89552 C 142.19545,516.27886 142.51621,515.83129 142.89915,515.55278 C 143.28704,515.2743 143.74954,515.13505 144.28664,515.13504 C 144.9033,515.13505 145.39812,515.28673 145.77111,515.59008 C 146.14906,515.88848 146.40269,516.32362 146.532,516.89552 L 146.57675,516.89552 C 146.72097,516.56233 146.87513,516.28384 147.03925,516.06004 C 147.20833,515.83626 147.39233,515.65723 147.59127,515.52295 C 147.79515,515.38371 148.01397,515.28424 148.24771,515.22456 C 148.48641,515.16489 148.74501,515.13505 149.02352,515.13504 C 149.46611,515.13505 149.8391,515.21462 150.14247,515.37375 C 150.45079,515.5329 150.69944,515.75172 150.88843,516.0302 C 151.08237,516.3087 151.22162,516.63693 151.30617,517.01488 C 151.39567,517.39284 151.44043,517.80063 151.44044,518.23826 L 151.44044,523.36304 L 149.3592,523.36304 L 149.3592,518.83503 C 149.35919,518.52173 149.33681,518.23578 149.29207,517.97717 C 149.25227,517.7136 149.18265,517.48981 149.0832,517.3058 C 148.9887,517.11683 148.86188,516.97012 148.70275,516.86568 C 148.54858,516.76125 148.3596,516.70904 148.13582,516.70903 C 147.92694,516.70904 147.73548,516.76374 147.56143,516.87314 C 147.39233,516.97758 147.24314,517.12926 147.11385,517.32818 C 146.98951,517.52214 146.89254,517.75587 146.82292,518.02939 C 146.75329,518.30291 146.71351,518.60627 146.70357,518.93947 L 146.70357,523.36304 L 144.62233,523.36304"
       style="font-size:15.27736187px;font-style:normal;font-weight:bold;fill:#f9f9f9;fill-opacity:1;stroke:#000000;stroke-width:0.30899999;stroke-linecap:round;stroke-linejoin:round;stroke-miterlimit:4;stroke-opacity:1;font-family:Fixed"
       id="text2160" />
    <g
       transform="matrix(4.9870684e-2,0,0,4.9870684e-2,144.75105,496.20877)"
       id="g3263">
      <rect
         width="346"
         height="346"
         x="159.81975"
         y="283.88248"
         style="opacity:0;fill:#333333;fill-opacity:1;stroke:none"
         id="rect3476" />
      <path
         d="M 587.9088 485.6666 A 146.47212 146.47212 0 1 1  294.96455,485.6666 A 146.47212 146.47212 0 1 1  587.9088 485.6666 z"
         transform="translate(-109.11678,-28.284271)"
         style="fill:#000000;fill-opacity:1;fill-rule:evenodd;stroke:#000000;stroke-width:1;stroke-linecap:butt;stroke-linejoin:miter;stroke-miterlimit:4;stroke-dasharray:none;stroke-dashoffset:0;stroke-opacity:1"
         id="path13425" />
      <path
         d="M 587.9088 485.6666 A 146.47212 146.47212 0 1 1  294.96455,485.6666 A 146.47212 146.47212 0 1 1  587.9088 485.6666 z"
         transform="translate(-109.11678,-28.284271)"
         style="fill:url(#radialGradient17537);fill-opacity:1;fill-rule:evenodd;stroke:#000000;stroke-width:1;stroke-linecap:butt;stroke-linejoin:miter;stroke-miterlimit:4;stroke-dasharray:none;stroke-dashoffset:0;stroke-opacity:1"
         id="path13427" />
      <path
         d="M 587.9088 485.6666 A 146.47212 146.47212 0 1 1  294.96455,485.6666 A 146.47212 146.47212 0 1 1  587.9088 485.6666 z"
         transform="matrix(1.0005266,0,0,1.0005266,-109.34923,-28.540012)"
         style="fill:none;fill-opacity:1;fill-rule:evenodd;stroke:#1a1a1a;stroke-width:4.80197334;stroke-linecap:butt;stroke-linejoin:miter;stroke-miterlimit:4;stroke-dasharray:none;stroke-dashoffset:0;stroke-opacity:1"
         id="path13459" />
      <path
         d="M 587.9088 485.6666 A 146.47212 146.47212 0 1 1  294.96455,485.6666 A 146.47212 146.47212 0 1 1  587.9088 485.6666 z"
         transform="matrix(1.0548092,0,0,1.0548092,-133.31157,-54.90326)"
         style="fill:none;fill-opacity:1;fill-rule:evenodd;stroke:#404040;stroke-width:12.3245039;stroke-linecap:butt;stroke-linejoin:miter;stroke-miterlimit:4;stroke-dasharray:none;stroke-dashoffset:0;stroke-opacity:1"
         id="path14432" />
      <path
         d="M 587.9088 485.6666 A 146.47212 146.47212 0 1 1  294.96455,485.6666 A 146.47212 146.47212 0 1 1  587.9088 485.6666 z"
         transform="matrix(1.0141035,0,0,1.0141035,-115.34259,-35.133879)"
         style="fill:none;fill-opacity:1;fill-rule:evenodd;stroke:#000000;stroke-width:1.946154;stroke-linecap:butt;stroke-linejoin:miter;stroke-miterlimit:4;stroke-dasharray:none;stroke-dashoffset:0;stroke-opacity:1;filter:url(#filter17476)"
         id="path14430" />
      <path
         d="M 587.9088 485.6666 A 146.47212 146.47212 0 1 1  294.96455,485.6666 A 146.47212 146.47212 0 1 1  587.9088 485.6666 z"
         transform="matrix(0.8144266,0,0,0.8144266,-27.19787,61.84254)"
         style="opacity:1;fill:url(#linearGradient4237);fill-opacity:1;fill-rule:evenodd;stroke:none;stroke-width:1;stroke-linecap:butt;stroke-linejoin:miter;stroke-miterlimit:4;stroke-dasharray:none;stroke-dashoffset:0;stroke-opacity:1"
         id="path16418" />
      <path
         d="M 587.9088 485.6666 A 146.47212 146.47212 0 1 1  294.96455,485.6666 A 146.47212 146.47212 0 1 1  587.9088 485.6666 z"
         transform="matrix(0.1060122,-0.8074974,0.8074974,0.1060122,-106.65232,762.35472)"
         style="opacity:1;fill:url(#radialGradient17545);fill-opacity:1;fill-rule:evenodd;stroke:none;stroke-width:1;stroke-linecap:butt;stroke-linejoin:miter;stroke-miterlimit:4;stroke-dasharray:none;stroke-dashoffset:0;stroke-opacity:1"
         id="path16380" />
      <path
         d="M 587.9088 485.6666 A 146.47212 146.47212 0 1 1  294.96455,485.6666 A 146.47212 146.47212 0 1 1  587.9088 485.6666 z"
         transform="matrix(-4.221494e-2,-0.7227261,-0.7227261,4.221494e-2,701.95903,743.16923)"
         style="opacity:0.98000004;fill:url(#linearGradient17543);fill-opacity:1;fill-rule:evenodd;stroke:none;stroke-width:1;stroke-linecap:butt;stroke-linejoin:miter;stroke-miterlimit:4;stroke-dasharray:none;stroke-dashoffset:0;stroke-opacity:1"
         id="path16406" />
      <path
         d="M 587.9088 485.6666 A 146.47212 146.47212 0 1 1  294.96455,485.6666 A 146.47212 146.47212 0 1 1  587.9088 485.6666 z"
         transform="matrix(-4.7490282e-2,0.8130408,-0.8130408,-4.7490282e-2,748.15057,121.54076)"
         style="opacity:0.68152867;fill:url(#radialGradient17539);fill-opacity:1;fill-rule:evenodd;stroke:none;stroke-width:1;stroke-linecap:butt;stroke-linejoin:miter;stroke-miterlimit:4;stroke-dasharray:none;stroke-dashoffset:0;stroke-opacity:1"
         id="path16390" />
      <g
         transform="translate(-218,0)"
         id="g17417">
        <path
           d="M 75.811045,522.51827 L -4.5148612,547.52502 L -79.278059,508.94974 L -104.28481,428.62383 L -65.70952,353.86063 L 14.616387,328.85389 L 89.379584,367.42917 L 114.38633,447.75508 L 75.811045,522.51827 z "
           transform="matrix(0.2940643,-7.3031514e-2,7.3031514e-2,0.2940643,515.95209,330.27289)"
           style="opacity:1;fill:#1a1a1a;fill-opacity:1;fill-rule:evenodd;stroke:none;stroke-width:5;stroke-linecap:butt;stroke-linejoin:miter;stroke-miterlimit:4;stroke-dasharray:none;stroke-dashoffset:0;stroke-opacity:1"
           id="path16404" />
        <path
           d="M 75.811045,522.51827 L -4.5148612,547.52502 L -79.278059,508.94974 L -104.28481,428.62383 L -65.70952,353.86063 L 14.616387,328.85389 L 89.379584,367.42917 L 114.38633,447.75508 L 75.811045,522.51827 z "
           transform="matrix(9.9838139e-2,0,0,9.9838139e-2,548.93472,415.01188)"
           style="opacity:1;fill:#000000;fill-opacity:1;fill-rule:evenodd;stroke:none;stroke-width:5;stroke-linecap:butt;stroke-linejoin:miter;stroke-miterlimit:4;stroke-dasharray:none;stroke-dashoffset:0;stroke-opacity:1"
           id="path17397" />
        <path
           d="M 75.811045,522.51827 L -4.5148612,547.52502 L -79.278059,508.94974 L -104.28481,428.62383 L -65.70952,353.86063 L 14.616387,328.85389 L 89.379584,367.42917 L 114.38633,447.75508 L 75.811045,522.51827 z "
           transform="matrix(8.3579579e-2,0,0,8.3579579e-2,549.01683,422.13621)"
           style="opacity:1;fill:#ffffff;fill-opacity:1;fill-rule:evenodd;stroke:none;stroke-width:5;stroke-linecap:butt;stroke-linejoin:miter;stroke-miterlimit:4;stroke-dasharray:none;stroke-dashoffset:0;stroke-opacity:1"
           id="path17399" />
        <path
           d="M 544.28069,425.66369 L 543.14946,450.87385"
           style="fill:none;fill-rule:evenodd;stroke:#000000;stroke-width:1px;stroke-linecap:butt;stroke-linejoin:miter;stroke-opacity:1"
           id="path17401" />
        <path
           d="M 522.46421,438.91518 L 539.75579,457.8228"
           style="fill:none;fill-rule:evenodd;stroke:#000000;stroke-width:1px;stroke-linecap:butt;stroke-linejoin:miter;stroke-opacity:1"
           id="path17403" />
        <path
           d="M 516.80809,463.80213 L 541.53343,465.41816"
           style="fill:none;fill-rule:evenodd;stroke:#000000;stroke-width:1px;stroke-linecap:butt;stroke-linejoin:miter;stroke-opacity:1"
           id="path17405" />
        <path
           d="M 530.38278,485.78021 L 548.48238,468.32703"
           style="fill:none;fill-rule:evenodd;stroke:#000000;stroke-width:1px;stroke-linecap:butt;stroke-linejoin:miter;stroke-opacity:1"
           id="path17407" />
        <path
           d="M 554.62331,491.27473 L 555.75454,466.87259"
           style="fill:none;fill-rule:evenodd;stroke:#000000;stroke-width:1px;stroke-linecap:butt;stroke-linejoin:miter;stroke-opacity:1"
           id="path17409" />
        <path
           d="M 576.43979,478.18484 L 559.30982,459.92364"
           style="fill:none;fill-rule:evenodd;stroke:#000000;stroke-width:1px;stroke-linecap:butt;stroke-linejoin:miter;stroke-opacity:1"
           id="path17411" />
        <path
           d="M 581.93431,453.13629 L 557.04737,452.48988"
           style="fill:none;fill-rule:evenodd;stroke:#000000;stroke-width:1px;stroke-linecap:butt;stroke-linejoin:miter;stroke-opacity:1"
           id="path17413" />
        <path
           d="M 569.16763,431.80463 L 550.42162,449.09621"
           style="fill:none;fill-rule:evenodd;stroke:#000000;stroke-width:1px;stroke-linecap:butt;stroke-linejoin:miter;stroke-opacity:1"
           id="path17415" />
      </g>
      <path
         d="M 587.9088 485.6666 A 146.47212 146.47212 0 1 1  294.96455,485.6666 A 146.47212 146.47212 0 1 1  587.9088 485.6666 z"
         transform="matrix(0.6131346,0.1455906,-0.1455906,0.6131346,133.01457,95.334363)"
         style="fill:url(#radialGradient17547);fill-opacity:1;fill-rule:evenodd;stroke:none;stroke-width:1;stroke-linecap:butt;stroke-linejoin:miter;stroke-miterlimit:4;stroke-dasharray:none;stroke-dashoffset:0;stroke-opacity:1"
         id="path17500" />
      <path
         d="M 587.9088 485.6666 A 146.47212 146.47212 0 1 1  294.96455,485.6666 A 146.47212 146.47212 0 1 1  587.9088 485.6666 z"
         transform="matrix(0.3424146,-0.5292128,0.5292128,0.3424146,-74.887556,524.69696)"
         style="opacity:1;fill:url(#radialGradient17549);fill-opacity:1;fill-rule:evenodd;stroke:none;stroke-width:1;stroke-linecap:butt;stroke-linejoin:miter;stroke-miterlimit:4;stroke-dasharray:none;stroke-dashoffset:0;stroke-opacity:1"
         id="path17430" />
      <path
         d="M 587.9088 485.6666 A 146.47212 146.47212 0 1 1  294.96455,485.6666 A 146.47212 146.47212 0 1 1  587.9088 485.6666 z"
         transform="matrix(5.6460221e-2,-0.4300588,0.4300588,5.6460221e-2,100.29527,619.80523)"
         style="fill:url(#radialGradient17551);fill-opacity:1;fill-rule:evenodd;stroke:none;stroke-width:1;stroke-linecap:butt;stroke-linejoin:miter;stroke-miterlimit:4;stroke-dasharray:none;stroke-dashoffset:0;stroke-opacity:1"
         id="path17434" />
      <path
         d="M 587.9088 485.6666 A 146.47212 146.47212 0 1 1  294.96455,485.6666 A 146.47212 146.47212 0 1 1  587.9088 485.6666 z"
         transform="matrix(0.1060122,-0.8074974,0.8074974,0.1060122,-106.65232,762.35472)"
         style="opacity:0.52320676;fill:none;fill-opacity:1;fill-rule:evenodd;stroke:#000000;stroke-width:2.45571566;stroke-linecap:butt;stroke-linejoin:miter;stroke-miterlimit:4;stroke-dasharray:none;stroke-dashoffset:0;stroke-opacity:1"
         id="path17470" />
      <path
         d="M 587.9088 485.6666 A 146.47212 146.47212 0 1 1  294.96455,485.6666 A 146.47212 146.47212 0 1 1  587.9088 485.6666 z"
         transform="matrix(0.9970981,0,0,0.9970981,-107.83581,-26.874948)"
         style="fill:none;fill-opacity:1;fill-rule:evenodd;stroke:#000000;stroke-width:3.93194366;stroke-linecap:butt;stroke-linejoin:miter;stroke-miterlimit:4;stroke-dasharray:none;stroke-dashoffset:0;stroke-opacity:1"
         id="path17480" />
      <path
         d="M 587.9088 485.6666 A 146.47212 146.47212 0 1 1  294.96455,485.6666 A 146.47212 146.47212 0 1 1  587.9088 485.6666 z"
         transform="matrix(0.1274,-0.9704088,0.9704088,0.1274,-195.21432,823.88245)"
         style="opacity:0.52320676;fill:none;fill-opacity:1;fill-rule:evenodd;stroke:#000000;stroke-width:2.45571566;stroke-linecap:butt;stroke-linejoin:miter;stroke-miterlimit:4;stroke-dasharray:none;stroke-dashoffset:0;stroke-opacity:1"
         id="path17482" />
      <path
         d="M 587.9088 485.6666 A 146.47212 146.47212 0 1 1  294.96455,485.6666 A 146.47212 146.47212 0 1 1  587.9088 485.6666 z"
         transform="matrix(0.1071514,-0.8161752,0.8161752,0.1071514,-111.36972,765.63209)"
         style="opacity:0.52320676;fill:none;fill-opacity:1;fill-rule:evenodd;stroke:#000000;stroke-width:2.45571566;stroke-linecap:butt;stroke-linejoin:miter;stroke-miterlimit:4;stroke-dasharray:none;stroke-dashoffset:0;stroke-opacity:1;filter:url(#filter17486)"
         id="path17484" />
      <path
         d="M 587.9088 485.6666 A 146.47212 146.47212 0 1 1  294.96455,485.6666 A 146.47212 146.47212 0 1 1  587.9088 485.6666 z"
         transform="matrix(-0.776793,0.3713236,-0.3713236,-0.776793,855.60919,670.69442)"
         style="opacity:0;fill:none;fill-opacity:1;fill-rule:evenodd;stroke:#000000;stroke-width:2.45571566;stroke-linecap:butt;stroke-linejoin:miter;stroke-miterlimit:4;stroke-dasharray:none;stroke-dashoffset:0;stroke-opacity:1"
         id="path17494" />
    </g>
  </g>
</svg>
