<?xml version="1.0" encoding="UTF-8" standalone="no"?>
<!-- Created with Inkscape (http://www.inkscape.org/) -->
<svg
   xmlns:dc="http://purl.org/dc/elements/1.1/"
   xmlns:cc="http://web.resource.org/cc/"
   xmlns:rdf="http://www.w3.org/1999/02/22-rdf-syntax-ns#"
   xmlns:svg="http://www.w3.org/2000/svg"
   xmlns="http://www.w3.org/2000/svg"
   xmlns:sodipodi="http://sodipodi.sourceforge.net/DTD/sodipodi-0.dtd"
   xmlns:inkscape="http://www.inkscape.org/namespaces/inkscape"
   width="744.09448819"
   height="1052.3622047"
   id="svg2"
   inkscape:label="Pozadí"
   sodipodi:version="0.32"
   inkscape:version="0.44"
   sodipodi:docbase="/home/pvanek/.kde/share/apps/htmlexport/themes/s0"
   sodipodi:docname="arrows_source.svg">
  <defs
     id="defs3" />
  <sodipodi:namedview
     id="base"
     pagecolor="#ffffff"
     bordercolor="#666666"
     borderopacity="1.0"
     inkscape:pageopacity="0.0"
     inkscape:pageshadow="2"
     inkscape:zoom="1"
     inkscape:cx="375"
     inkscape:cy="640"
     inkscape:document-units="px"
     inkscape:current-layer="layer1"
     inkscape:window-width="1008"
     inkscape:window-height="568"
     inkscape:window-x="597"
     inkscape:window-y="0" />
  <metadata
     id="metadata6">
    <rdf:RDF>
      <cc:Work
         rdf:about="">
        <dc:format>image/svg+xml</dc:format>
        <dc:type
           rdf:resource="http://purl.org/dc/dcmitype/StillImage" />
      </cc:Work>
    </rdf:RDF>
  </metadata>
  <g
     inkscape:label="Vrstva 1"
     inkscape:groupmode="layer"
     id="layer1">
    <g
       id="g1897"
       transform="matrix(0.304031,0,0,0.304031,67.82486,264.6121)"
       inkscape:export-filename="/home/pvanek/.kde/share/apps/htmlexport/themes/s0/previous.png"
       inkscape:export-xdpi="90"
       inkscape:export-ydpi="90">
      <path
         d="M 63.356906,268.3638 C 68.150409,268.96549 72.961517,269.80549 77.770346,270.52824 C 85.279268,272.33972 92.962476,273.32217 100.58489,274.42474 C 107.74376,276.7477 114.89455,276.13083 122.20574,275.97499 C 129.15364,274.96016 136.15306,274.7825 143.15035,274.49274 C 151.05339,273.98159 158.88992,272.77624 166.81168,272.17182 C 175.77936,271.54894 184.70055,270.23791 193.64913,269.27076 C 197.21733,268.90294 200.80674,268.87692 204.38436,268.68006 L 170.49858,293.51424 C 167.0148,293.73329 163.51862,293.79055 160.04503,294.17152 C 151.12843,295.19761 142.21996,296.3815 133.25971,296.95539 C 125.29993,297.81239 117.36757,299.10166 109.35054,299.23145 C 102.39265,299.69091 95.43747,300.14892 88.494721,300.81964 C 81.006837,300.53779 73.543958,300.63371 66.241419,298.44319 C 58.632507,297.32996 51.034547,296.18319 43.472718,294.78103 C 38.591326,294.10881 33.704773,293.07986 28.755193,293.50342 L 63.356906,268.3638 z "
         id="path1875"
         style="fill:black;fill-opacity:1;fill-rule:nonzero;stroke:none;stroke-width:1px;stroke-linecap:butt;stroke-linejoin:miter;stroke-opacity:1" />
      <path
         d="M 96.944534,257.45706 C 139.44398,231.80712 114.57957,246.84839 65.104202,275.08853 C 133.96893,236.2401 50.031929,283.54396 25.129756,295.43671 C -23.969475,322.27503 46.123664,278.28226 26.354652,295.38329 C 21.685568,304.00696 25.873082,308.32943 29.873473,316.03635 C 36.642466,324.11763 45.985884,328.64394 55.142845,333.39717 C 59.948383,335.47305 64.86154,337.27004 69.731528,339.17816 L 35.198639,362.37346 C 30.283858,360.33775 25.331494,358.38952 20.497071,356.16324 C 10.831338,350.99889 1.1079084,345.86441 -5.9976513,337.23382 C -11.376742,328.87023 -15.654417,321.85833 -12.065204,311.72237 C 6.1559472,291.95874 32.857631,282.24502 56.698605,270.30232 C 107.62259,246.56091 -17.139711,313.09307 97.076719,249.2384 C 144.2574,222.38705 7.4666151,300.65302 130.25984,230.80797 L 96.944534,257.45706 z "
         id="path1877"
         style="fill:black;fill-opacity:1;fill-rule:nonzero;stroke:none;stroke-width:1px;stroke-linecap:butt;stroke-linejoin:miter;stroke-opacity:1" />
    </g>
    <g
       id="g1905"
       transform="matrix(0.199566,0,0,0.199566,105.9595,235.9365)"
       inkscape:export-filename="/home/pvanek/.kde/share/apps/htmlexport/themes/s0/up.png"
       inkscape:export-xdpi="90"
       inkscape:export-ydpi="90">
      <path
         d="M 324.69091,498.00412 C 322.88411,511.7913 320.15948,525.48918 317.84603,539.21352 C 313.08982,565.92245 308.88602,592.73945 303.70746,619.37077 C 300.22117,636.79873 296.66996,654.17167 294.16594,671.76495 C 293.98863,673.62773 293.81131,675.49052 293.634,677.3533 L 256.54766,695.75184 C 256.77835,693.82184 257.00903,691.89184 257.23972,689.96184 C 260.05882,672.03001 264.11467,654.41824 268.01517,636.69137 C 273.29979,610.18028 278.36921,583.60904 282.04642,556.81973 C 283.57634,543.67664 285.90909,530.51572 286.73766,517.34226 L 324.69091,498.00412 z "
         id="path1887"
         style="fill:black;fill-opacity:1;fill-rule:nonzero;stroke:none;stroke-width:1px;stroke-linecap:butt;stroke-linejoin:miter;stroke-opacity:1" />
      <path
         d="M 254.48404,538.69587 C 255.82349,538.25296 256.8928,537.32325 258.09718,536.63695 C 199.23703,574.97769 223.02332,557.70685 235.20025,546.66092 C 241.9451,539.70877 249.23658,533.32173 256.3914,526.80118 C 272.42754,512.3043 291.71445,501.82229 312.50877,496.46461 C 320.39532,494.2497 328.08272,495.74452 335.9219,496.76655 C 347.47734,504.07102 357.36853,513.76945 367.44264,522.96097 C 376.59961,530.97282 384.20817,540.4807 392.16163,549.63377 C 400.39322,559.84215 409.39171,569.3809 417.89851,579.35329 C 418.90718,580.55402 419.91585,581.75475 420.92452,582.95548 L 385.19139,604.3717 C 384.21261,603.14931 383.23384,601.92692 382.25507,600.70453 C 374.06893,590.5095 365.46342,580.67673 356.81818,570.86646 C 348.96697,561.84215 341.07307,552.83371 332.37615,544.59323 C 322.92118,535.70134 313.68674,525.76285 301.48735,520.79351 C 293.97157,520.23081 286.65386,519.40788 279.28802,521.91064 C 245.01712,533.9765 317.41774,490.08881 294.98556,511.00559 C 287.83109,517.5408 280.42934,523.83435 273.6547,530.76291 C 258.7134,545.76926 240.64171,556.42674 221.16873,565.34497 L 254.48404,538.69587 z "
         id="path1895"
         style="fill:black;fill-opacity:1;fill-rule:nonzero;stroke:none;stroke-width:1px;stroke-linecap:butt;stroke-linejoin:miter;stroke-opacity:1" />
    </g>
    <g
       id="g1923"
       transform="matrix(0.92827,0,0,0.92827,15.49829,31.2752)"
       inkscape:export-filename="/home/pvanek/.kde/share/apps/htmlexport/themes/s0/next.png"
       inkscape:export-xdpi="90"
       inkscape:export-ydpi="90">
      <path
         d="M 228.17492,353.96275 C 230.77699,354.23536 233.32909,353.82734 235.90496,353.49579 C 243.67834,352.08929 251.42686,350.57548 259.25099,349.47358 C 264.50999,348.74717 269.79812,348.32115 275.09724,348.05727 C 277.6397,347.98238 280.1839,348.01846 282.727,348.02886 C 285.44797,347.87423 288.11518,348.16824 290.80905,348.41165 C 291.64547,348.54396 292.48903,348.61797 293.32902,348.72113 L 281.34439,357.2077 C 280.51082,357.09831 279.67692,356.99137 278.84367,356.87954 C 276.17988,356.73088 273.51728,356.53916 270.84128,356.65579 C 268.33339,356.64555 265.82527,356.6245 263.31762,356.67515 C 258.22739,356.84018 253.13971,357.1262 248.08955,357.82502 C 240.13764,358.95539 232.28776,360.59514 224.39917,362.08963 C 221.62285,362.43418 218.86964,362.81315 216.06432,362.76162 L 228.17492,353.96275 z "
         id="path1909"
         style="fill:black;fill-opacity:1;fill-rule:nonzero;stroke:none;stroke-width:1px;stroke-linecap:butt;stroke-linejoin:miter;stroke-opacity:1" />
      <path
         d="M 270.17492,326.96275 C 272.3408,327.22355 274.18293,328.83604 276.05396,329.93845 C 279.35852,331.8196 282.47525,333.97769 285.54925,336.20728 C 288.76648,338.81735 292.05249,341.30353 295.11313,344.09652 C 297.84125,346.12965 298.10789,348.36317 298.66435,351.31528 C 295.55472,358.34571 286.71683,360.71608 279.84051,363.60962 C 276.65524,365.07555 273.63487,366.85979 270.54231,368.50532 C 286.27346,359.47499 285.38903,359.97033 267.92491,370.05366 L 279.30085,360.85231 C 263.44757,370.03247 264.31015,369.53038 281.89611,359.35904 C 284.9911,357.70659 288.04208,355.95974 291.2682,354.56897 C 302.0255,349.50167 276.26143,364.90467 285.4166,357.74642 C 284.93996,355.41755 285.35921,353.48797 282.69803,351.73058 C 279.73787,348.9329 276.58718,346.37565 273.26662,344.00725 C 270.24056,341.80199 267.17909,339.6542 263.8881,337.85268 C 262.01122,336.84334 260.28024,335.52769 258.06432,335.76162 L 270.17492,326.96275 z "
         id="path1921"
         style="fill:black;fill-opacity:1;fill-rule:nonzero;stroke:none;stroke-width:1px;stroke-linecap:butt;stroke-linejoin:miter;stroke-opacity:1" />
    </g>
    <g
       id="g1927"
       transform="matrix(0.304031,0,0,0.304031,61.578,328.1894)"
       style="fill:#9ea59e;fill-opacity:1"
       inkscape:export-filename="/home/pvanek/.kde/share/apps/htmlexport/themes/s0/previous_disabled.png"
       inkscape:export-xdpi="90"
       inkscape:export-ydpi="90">
      <path
         d="M 63.356906,268.3638 C 68.150409,268.96549 72.961517,269.80549 77.770346,270.52824 C 85.279268,272.33972 92.962476,273.32217 100.58489,274.42474 C 107.74376,276.7477 114.89455,276.13083 122.20574,275.97499 C 129.15364,274.96016 136.15306,274.7825 143.15035,274.49274 C 151.05339,273.98159 158.88992,272.77624 166.81168,272.17182 C 175.77936,271.54894 184.70055,270.23791 193.64913,269.27076 C 197.21733,268.90294 200.80674,268.87692 204.38436,268.68006 L 170.49858,293.51424 C 167.0148,293.73329 163.51862,293.79055 160.04503,294.17152 C 151.12843,295.19761 142.21996,296.3815 133.25971,296.95539 C 125.29993,297.81239 117.36757,299.10166 109.35054,299.23145 C 102.39265,299.69091 95.43747,300.14892 88.494721,300.81964 C 81.006837,300.53779 73.543958,300.63371 66.241419,298.44319 C 58.632507,297.32996 51.034547,296.18319 43.472718,294.78103 C 38.591326,294.10881 33.704773,293.07986 28.755193,293.50342 L 63.356906,268.3638 z "
         id="path1929"
         style="fill:#9ea59e;fill-opacity:1;fill-rule:nonzero;stroke:none;stroke-width:1px;stroke-linecap:butt;stroke-linejoin:miter;stroke-opacity:1" />
      <path
         d="M 96.944534,257.45706 C 139.44398,231.80712 114.57957,246.84839 65.104202,275.08853 C 133.96893,236.2401 50.031929,283.54396 25.129756,295.43671 C -23.969475,322.27503 46.123664,278.28226 26.354652,295.38329 C 21.685568,304.00696 25.873082,308.32943 29.873473,316.03635 C 36.642466,324.11763 45.985884,328.64394 55.142845,333.39717 C 59.948383,335.47305 64.86154,337.27004 69.731528,339.17816 L 35.198639,362.37346 C 30.283858,360.33775 25.331494,358.38952 20.497071,356.16324 C 10.831338,350.99889 1.1079084,345.86441 -5.9976513,337.23382 C -11.376742,328.87023 -15.654417,321.85833 -12.065204,311.72237 C 6.1559472,291.95874 32.857631,282.24502 56.698605,270.30232 C 107.62259,246.56091 -17.139711,313.09307 97.076719,249.2384 C 144.2574,222.38705 7.4666151,300.65302 130.25984,230.80797 L 96.944534,257.45706 z "
         id="path1931"
         style="fill:#9ea59e;fill-opacity:1;fill-rule:nonzero;stroke:none;stroke-width:1px;stroke-linecap:butt;stroke-linejoin:miter;stroke-opacity:1" />
    </g>
    <g
       id="g1939"
       transform="matrix(0.92827,0,0,0.92827,9.2514,94.8525)"
       style="fill:#9ea59e;fill-opacity:1"
       inkscape:export-filename="/home/pvanek/.kde/share/apps/htmlexport/themes/s0/next_disabled.png"
       inkscape:export-xdpi="90"
       inkscape:export-ydpi="90">
      <path
         d="M 228.17492,353.96275 C 230.77699,354.23536 233.32909,353.82734 235.90496,353.49579 C 243.67834,352.08929 251.42686,350.57548 259.25099,349.47358 C 264.50999,348.74717 269.79812,348.32115 275.09724,348.05727 C 277.6397,347.98238 280.1839,348.01846 282.727,348.02886 C 285.44797,347.87423 288.11518,348.16824 290.80905,348.41165 C 291.64547,348.54396 292.48903,348.61797 293.32902,348.72113 L 281.34439,357.2077 C 280.51082,357.09831 279.67692,356.99137 278.84367,356.87954 C 276.17988,356.73088 273.51728,356.53916 270.84128,356.65579 C 268.33339,356.64555 265.82527,356.6245 263.31762,356.67515 C 258.22739,356.84018 253.13971,357.1262 248.08955,357.82502 C 240.13764,358.95539 232.28776,360.59514 224.39917,362.08963 C 221.62285,362.43418 218.86964,362.81315 216.06432,362.76162 L 228.17492,353.96275 z "
         id="path1941"
         style="fill:#9ea59e;fill-opacity:1;fill-rule:nonzero;stroke:none;stroke-width:1px;stroke-linecap:butt;stroke-linejoin:miter;stroke-opacity:1" />
      <path
         d="M 270.17492,326.96275 C 272.3408,327.22355 274.18293,328.83604 276.05396,329.93845 C 279.35852,331.8196 282.47525,333.97769 285.54925,336.20728 C 288.76648,338.81735 292.05249,341.30353 295.11313,344.09652 C 297.84125,346.12965 298.10789,348.36317 298.66435,351.31528 C 295.55472,358.34571 286.71683,360.71608 279.84051,363.60962 C 276.65524,365.07555 273.63487,366.85979 270.54231,368.50532 C 286.27346,359.47499 285.38903,359.97033 267.92491,370.05366 L 279.30085,360.85231 C 263.44757,370.03247 264.31015,369.53038 281.89611,359.35904 C 284.9911,357.70659 288.04208,355.95974 291.2682,354.56897 C 302.0255,349.50167 276.26143,364.90467 285.4166,357.74642 C 284.93996,355.41755 285.35921,353.48797 282.69803,351.73058 C 279.73787,348.9329 276.58718,346.37565 273.26662,344.00725 C 270.24056,341.80199 267.17909,339.6542 263.8881,337.85268 C 262.01122,336.84334 260.28024,335.52769 258.06432,335.76162 L 270.17492,326.96275 z "
         id="path1943"
         style="fill:#9ea59e;fill-opacity:1;fill-rule:nonzero;stroke:none;stroke-width:1px;stroke-linecap:butt;stroke-linejoin:miter;stroke-opacity:1" />
    </g>
  </g>
</svg>
