<?xml version="1.0" encoding="UTF-8" standalone="no"?>
<!-- Created with Inkscape (http://www.inkscape.org/) -->

<svg
   xmlns:dc="http://purl.org/dc/elements/1.1/"
   xmlns:cc="http://creativecommons.org/ns#"
   xmlns:rdf="http://www.w3.org/1999/02/22-rdf-syntax-ns#"
   xmlns:svg="http://www.w3.org/2000/svg"
   xmlns="http://www.w3.org/2000/svg"
   xmlns:sodipodi="http://sodipodi.sourceforge.net/DTD/sodipodi-0.dtd"
   xmlns:inkscape="http://www.inkscape.org/namespaces/inkscape"
   width="150"
   height="30"
   id="svg2"
   version="1.1"
   inkscape:version="0.47 r22583"
   sodipodi:docname="cluster-circle.svg"
   inkscape:export-filename="/c/temp/kde/trunk-svn/worldmapwidget2/backend-data/cluster-circle.png"
   inkscape:export-xdpi="90"
   inkscape:export-ydpi="90">
  <defs
     id="defs4">
    <inkscape:perspective
       sodipodi:type="inkscape:persp3d"
       inkscape:vp_x="0 : 526.18109 : 1"
       inkscape:vp_y="0 : 1000 : 0"
       inkscape:vp_z="744.09448 : 526.18109 : 1"
       inkscape:persp3d-origin="372.04724 : 350.78739 : 1"
       id="perspective10" />
  </defs>
  <sodipodi:namedview
     id="base"
     pagecolor="#ffffff"
     bordercolor="#666666"
     borderopacity="1.0"
     inkscape:pageopacity="0.0"
     inkscape:pageshadow="2"
     inkscape:zoom="4"
     inkscape:cx="83.986573"
     inkscape:cy="-11.454462"
     inkscape:document-units="px"
     inkscape:current-layer="layer5"
     showgrid="true"
     inkscape:window-width="1272"
     inkscape:window-height="740"
     inkscape:window-x="0"
     inkscape:window-y="217"
     inkscape:window-maximized="0">
    <inkscape:grid
       type="xygrid"
       id="grid2816"
       empspacing="5"
       visible="true"
       enabled="true"
       snapvisiblegridlinesonly="true"
       spacingx="0.5px"
       spacingy="0.5px" />
  </sodipodi:namedview>
  <metadata
     id="metadata7">
    <rdf:RDF>
      <cc:Work
         rdf:about="">
        <dc:format>image/svg+xml</dc:format>
        <dc:type
           rdf:resource="http://purl.org/dc/dcmitype/StillImage" />
        <dc:title />
      </cc:Work>
    </rdf:RDF>
  </metadata>
  <g
     inkscape:label="ff0000"
     inkscape:groupmode="layer"
     id="layer1"
     transform="translate(0,-1022.3622)">
    <path
       sodipodi:type="arc"
       style="fill:#00ff00;fill-opacity:1;stroke:#000000;stroke-linecap:round;stroke-linejoin:round;stroke-opacity:1"
       id="cluster-circle-00ff00"
       sodipodi:cx="15"
       sodipodi:cy="15"
       sodipodi:rx="14.5"
       sodipodi:ry="14.5"
       d="M 29.5,15 C 29.5,23.008129 23.008129,29.5 15,29.5 6.9918711,29.5 0.5,23.008129 0.5,15 0.5,6.9918711 6.9918711,0.5 15,0.5 23.008129,0.5 29.5,6.9918711 29.5,15 z"
       transform="translate(0,1022.3622)"
       inkscape:label="#path2827" />
    <path
       inkscape:label="#path2827"
       transform="matrix(0.96551724,0,0,0.96551724,0.51724138,1054.8794)"
       d="m 29.5,15 a 14.5,14.5 0 1 1 -29,0 14.5,14.5 0 1 1 29,0 z"
       sodipodi:ry="14.5"
       sodipodi:rx="14.5"
       sodipodi:cy="15"
       sodipodi:cx="15"
       id="cluster-circle-00ff00-selected"
       style="fill:#00ff00;fill-opacity:1;stroke:#0000ff;stroke-opacity:1;stroke-width:2.07142857;stroke-miterlimit:4;stroke-dasharray:none"
       sodipodi:type="arc" />
    <path
       sodipodi:type="arc"
       style="fill:#00ff00;fill-opacity:1;stroke:#0000ff;stroke-opacity:1;stroke-width:2.07142857;stroke-miterlimit:4;stroke-dasharray:6.21428572,6.21428572;stroke-dashoffset:0"
       id="cluster-circle-00ff00-someselected"
       sodipodi:cx="15"
       sodipodi:cy="15"
       sodipodi:rx="14.5"
       sodipodi:ry="14.5"
       d="m 29.5,15 a 14.5,14.5 0 1 1 -29,0 14.5,14.5 0 1 1 29,0 z"
       transform="matrix(0.96551724,0,0,0.96551724,0.51724138,1086.8794)"
       inkscape:label="#path2827" />
  </g>
  <g
     inkscape:groupmode="layer"
     id="layer2"
     inkscape:label="ff7f00">
    <path
       d="m 29.5,15 a 14.5,14.5 0 1 1 -29,0 14.5,14.5 0 1 1 29,0 z"
       sodipodi:ry="14.5"
       sodipodi:rx="14.5"
       sodipodi:cy="15"
       sodipodi:cx="15"
       id="cluster-circle-ff7f00"
       style="fill:#ff7f00;fill-opacity:1;stroke:#000000;stroke-linecap:round;stroke-linejoin:round;stroke-opacity:1"
       sodipodi:type="arc"
       transform="translate(30,0)"
       inkscape:label="#path3623" />
    <path
       inkscape:label="#path3623"
       transform="matrix(0.96551724,0,0,0.96551724,30.517241,32.517241)"
       sodipodi:type="arc"
       style="fill:#ff7f00;fill-opacity:1;stroke:#0000ff;stroke-opacity:1;stroke-width:2.07142857;stroke-miterlimit:4;stroke-dasharray:none"
       id="cluster-circle-ff7f00-selected"
       sodipodi:cx="15"
       sodipodi:cy="15"
       sodipodi:rx="14.5"
       sodipodi:ry="14.5"
       d="m 29.5,15 a 14.5,14.5 0 1 1 -29,0 14.5,14.5 0 1 1 29,0 z" />
    <path
       d="m 29.5,15 a 14.5,14.5 0 1 1 -29,0 14.5,14.5 0 1 1 29,0 z"
       sodipodi:ry="14.5"
       sodipodi:rx="14.5"
       sodipodi:cy="15"
       sodipodi:cx="15"
       id="cluster-circle-ff7f00-someselected"
       style="fill:#ff7f00;fill-opacity:1;stroke:#0000ff;stroke-opacity:1;stroke-width:2.07142857;stroke-miterlimit:4;stroke-dasharray:6.21428572,6.21428572;stroke-dashoffset:0"
       sodipodi:type="arc"
       transform="matrix(0.96551724,0,0,0.96551724,30.517241,64.517241)"
       inkscape:label="#path3623" />
  </g>
  <g
     inkscape:groupmode="layer"
     id="layer3"
     inkscape:label="ffff00">
    <path
       sodipodi:type="arc"
       style="fill:#ffff00;fill-opacity:1;stroke:#000000;stroke-linecap:round;stroke-linejoin:round;stroke-opacity:1"
       id="cluster-circle-ffff00"
       sodipodi:cx="15"
       sodipodi:cy="15"
       sodipodi:rx="14.5"
       sodipodi:ry="14.5"
       d="m 29.5,15 a 14.5,14.5 0 1 1 -29,0 14.5,14.5 0 1 1 29,0 z"
       transform="translate(60,0)"
       inkscape:label="#path3627" />
    <path
       inkscape:label="#path3627"
       transform="matrix(0.96551724,0,0,0.96551724,60.517241,32.517241)"
       d="m 29.5,15 a 14.5,14.5 0 1 1 -29,0 14.5,14.5 0 1 1 29,0 z"
       sodipodi:ry="14.5"
       sodipodi:rx="14.5"
       sodipodi:cy="15"
       sodipodi:cx="15"
       id="cluster-circle-ffff00-selected"
       style="fill:#ffff00;fill-opacity:1;stroke:#0000ff;stroke-opacity:1;stroke-width:2.07142857;stroke-miterlimit:4;stroke-dasharray:none"
       sodipodi:type="arc" />
    <path
       sodipodi:type="arc"
       style="fill:#ffff00;fill-opacity:1;stroke:#0000ff;stroke-opacity:1;stroke-width:2.07142857;stroke-miterlimit:4;stroke-dasharray:6.21428572,6.21428572;stroke-dashoffset:0"
       id="cluster-circle-ffff00-someselected"
       sodipodi:cx="15"
       sodipodi:cy="15"
       sodipodi:rx="14.5"
       sodipodi:ry="14.5"
       d="m 29.5,15 a 14.5,14.5 0 1 1 -29,0 14.5,14.5 0 1 1 29,0 z"
       transform="matrix(0.96551724,0,0,0.96551724,60.517241,64.517241)"
       inkscape:label="#path3627" />
  </g>
  <g
     inkscape:groupmode="layer"
     id="layer4"
     inkscape:label="00ff00">
    <path
       d="m 29.5,15 a 14.5,14.5 0 1 1 -29,0 14.5,14.5 0 1 1 29,0 z"
       sodipodi:ry="14.5"
       sodipodi:rx="14.5"
       sodipodi:cy="15"
       sodipodi:cx="15"
       id="cluster-circle-ff0000"
       style="fill:#ff0000;fill-opacity:1;stroke:#000000;stroke-linecap:round;stroke-linejoin:round;stroke-opacity:1"
       sodipodi:type="arc"
       transform="translate(90,0)"
       inkscape:label="#path3631" />
    <path
       inkscape:label="#path3631"
       transform="matrix(0.96551724,0,0,0.96551724,90.517241,32.517241)"
       sodipodi:type="arc"
       style="fill:#ff0000;fill-opacity:1;stroke:#0000ff;stroke-opacity:1;stroke-width:2.07142857;stroke-miterlimit:4;stroke-dasharray:none"
       id="cluster-circle-ff0000-selected"
       sodipodi:cx="15"
       sodipodi:cy="15"
       sodipodi:rx="14.5"
       sodipodi:ry="14.5"
       d="m 29.5,15 a 14.5,14.5 0 1 1 -29,0 14.5,14.5 0 1 1 29,0 z" />
    <path
       d="m 29.5,15 a 14.5,14.5 0 1 1 -29,0 14.5,14.5 0 1 1 29,0 z"
       sodipodi:ry="14.5"
       sodipodi:rx="14.5"
       sodipodi:cy="15"
       sodipodi:cx="15"
       id="cluster-circle-ff0000-someselected"
       style="fill:#ff0000;fill-opacity:1;stroke:#0000ff;stroke-opacity:1;stroke-width:2.07142857;stroke-miterlimit:4;stroke-dasharray:6.21428572,6.21428572;stroke-dashoffset:0"
       sodipodi:type="arc"
       transform="matrix(0.96551724,0,0,0.96551724,90.517241,64.517241)"
       inkscape:label="#path3631" />
  </g>
  <g
     inkscape:groupmode="layer"
     id="layer5"
     inkscape:label="00ffff">
    <path
       sodipodi:type="arc"
       style="fill:#00ffff;fill-opacity:1;stroke:#000000;stroke-linecap:round;stroke-linejoin:round;stroke-opacity:1"
       id="cluster-circle-00ffff"
       sodipodi:cx="15"
       sodipodi:cy="15"
       sodipodi:rx="14.5"
       sodipodi:ry="14.5"
       d="m 29.5,15 a 14.5,14.5 0 1 1 -29,0 14.5,14.5 0 1 1 29,0 z"
       transform="translate(120,0)"
       inkscape:label="#path3635" />
    <path
       inkscape:label="#path3635"
       transform="matrix(0.96551724,0,0,0.96551724,120.51724,32.517241)"
       d="m 29.5,15 a 14.5,14.5 0 1 1 -29,0 14.5,14.5 0 1 1 29,0 z"
       sodipodi:ry="14.5"
       sodipodi:rx="14.5"
       sodipodi:cy="15"
       sodipodi:cx="15"
       id="cluster-circle-00ffff-selected"
       style="fill:#00ffff;fill-opacity:1;stroke:#0000ff;stroke-opacity:1;stroke-width:2.07142857;stroke-miterlimit:4;stroke-dasharray:none"
       sodipodi:type="arc" />
    <path
       sodipodi:type="arc"
       style="fill:#00ffff;fill-opacity:1;stroke:#0000ff;stroke-opacity:1;stroke-width:2.07142857;stroke-miterlimit:4;stroke-dasharray:6.21428572,6.21428572;stroke-dashoffset:0"
       id="cluster-circle-00ffff-someselected"
       sodipodi:cx="15"
       sodipodi:cy="15"
       sodipodi:rx="14.5"
       sodipodi:ry="14.5"
       d="m 29.5,15 a 14.5,14.5 0 1 1 -29,0 14.5,14.5 0 1 1 29,0 z"
       transform="matrix(0.96551724,0,0,0.96551724,120.51724,64.517241)"
       inkscape:label="#path3635" />
  </g>
</svg>
