<?xml version="1.0" encoding="UTF-8" standalone="no"?>
<!-- Created with Inkscape (http://www.inkscape.org/) -->

<svg
   xmlns:dc="http://purl.org/dc/elements/1.1/"
   xmlns:cc="http://creativecommons.org/ns#"
   xmlns:rdf="http://www.w3.org/1999/02/22-rdf-syntax-ns#"
   xmlns:svg="http://www.w3.org/2000/svg"
   xmlns="http://www.w3.org/2000/svg"
   version="1.0"
   width="1000"
   height="1000"
   id="svg5496">
  <metadata
     id="metadata5594">
    <rdf:RDF>
      <cc:Work
         rdf:about="">
        <dc:format>image/svg+xml</dc:format>
        <dc:type
           rdf:resource="http://purl.org/dc/dcmitype/StillImage" />
        <dc:title></dc:title>
      </cc:Work>
    </rdf:RDF>
  </metadata>
  <defs
     id="defs5498">
    <filter
       x="-0.35791525"
       y="-0.36209866"
       width="1.7158304"
       height="1.7241973"
       color-interpolation-filters="sRGB"
       id="filter3778">
      <feGaussianBlur
         stdDeviation="255.88839"
         id="feGaussianBlur3780" />
    </filter>
    <filter
       color-interpolation-filters="sRGB"
       id="filter3788">
      <feGaussianBlur
         stdDeviation="27.670704"
         id="feGaussianBlur3790" />
    </filter>
    <filter
       color-interpolation-filters="sRGB"
       id="filter3799">
      <feGaussianBlur
         stdDeviation="38.667111"
         id="feGaussianBlur3801" />
    </filter>
    <filter
       color-interpolation-filters="sRGB"
       id="filter3793">
      <feGaussianBlur
         id="feGaussianBlur3795"
         stdDeviation="9.9656342" />
    </filter>
    <filter
       color-interpolation-filters="sRGB"
       id="filter3801">
      <feGaussianBlur
         id="feGaussianBlur3803"
         stdDeviation="16.994255" />
    </filter>
    <filter
       color-interpolation-filters="sRGB"
       id="filter3807">
      <feGaussianBlur
         id="feGaussianBlur3809"
         stdDeviation="17.130938" />
    </filter>
    <filter
       color-interpolation-filters="sRGB"
       id="filter3813">
      <feGaussianBlur
         id="feGaussianBlur3815"
         stdDeviation="17.07019" />
    </filter>
    <filter
       color-interpolation-filters="sRGB"
       id="filter3833">
      <feGaussianBlur
         id="feGaussianBlur3835"
         stdDeviation="20.798373" />
    </filter>
  </defs>
  <g
     id="layer1" />
  <rect
     width="989.69073"
     height="970.66827"
     x="6.8728523"
     y="10.309278"
     id="rect3797"
     style="fill:#000000;fill-opacity:1;stroke:none" />
  <rect
     width="996.56348"
     height="996.56335"
     x="3.4364254"
     y="3.4364274"
     transform="matrix(1,0,0,0.97617539,0,0.08187153)"
     id="rect2994"
     style="fill:#ffffff;fill-opacity:1;stroke:none;filter:url(#filter3793)" />
  <rect
     width="261.1684"
     height="312.71478"
     x="-254.29553"
     y="-309.27835"
     id="rect3764"
     style="fill:#ffffff;fill-opacity:1;stroke:none" />
  <path
     d="m 82.617287,907.66303 0,-843.182311 833.462633,410.656511 z"
     id="path3821"
     style="fill:none;stroke:#000000;stroke-width:1px;stroke-linecap:butt;stroke-linejoin:miter;stroke-opacity:1" />
  <path
     d="m 83.614501,486.01074 0,-418.878258 125.748369,61.974688 c 69.16161,34.08608 255.02863,125.6016 413.03786,203.36783 158.00921,77.76621 287.30643,141.93985 287.32713,142.60808 0.029,0.93724 -493.7151,257.89955 -785.28186,408.68908 l -40.831499,21.11683 0,-418.87825 z"
     id="path3823"
     style="fill:#000000;fill-opacity:0.45502642;stroke:none;filter:url(#filter3833)" />
  <path
     d="m 128.94463,827.83765 c -3.70144,-4.09004 -4.02149,-31.32709 -4.02149,-342.24213 0,-324.16768 0.17932,-337.96073 4.4437,-341.81995 2.44403,-2.21181 5.35713,-4.02148 6.47356,-4.02148 1.11643,0 36.02118,16.81777 77.56612,37.37282 41.54493,20.55505 91.9382,45.27021 111.98504,54.92256 34.35123,16.53978 151.98794,74.69295 378.0977,186.91088 54.26131,26.92981 101.04332,51.5035 103.96005,54.60821 7.43247,7.9115 8.90707,6.79971 -47.10203,35.51289 -18.71039,9.59192 -39.4862,20.53188 -46.16848,24.31104 -6.68229,3.77913 -31.83196,16.90461 -55.88817,29.16771 -24.05621,12.26311 -49.20588,25.38327 -55.88816,29.15591 -6.68228,3.77265 -34.01889,17.99704 -60.74801,31.60979 -26.72912,13.61275 -56.25265,28.91328 -65.60785,34.00119 -9.35519,5.08791 -38.87872,20.38844 -65.60784,34.0012 -26.72912,13.61275 -54.06573,27.83573 -60.74801,31.60665 -6.68228,3.77092 -34.01888,17.99805 -60.748,31.61586 -26.72912,13.61781 -58.43958,30.01576 -70.46769,36.43988 -35.70776,19.07128 -80.39469,41.29067 -83.04248,41.29067 -1.35656,0 -4.27614,-1.99966 -6.48796,-4.4437 z"
     id="path3837"
     style="fill:#000000;fill-opacity:0.45502642;stroke:none" />
</svg>
