<?xml version="1.0" standalone="no"?>
<!DOCTYPE svg PUBLIC "-//W3C//DTD SVG 20010904//EN"
"http://www.w3.org/TR/2001/REC-SVG-20010904/DTD/svg10.dtd"
[
 <!ATTLIST svg
  xmlns:xlink CDATA #FIXED "http://www.w3.org/1999/xlink">
]>
<!-- Created with Sodipodi ("http://www.sodipodi.com/") -->
<svg
   xml:space="preserve"
   width="128pt"
   height="128pt"
   viewBox="0 0 507.946 507.946"
   id="svg49"
   sodipodi:version="0.27"
   sodipodi:docname="/mnt/windows/Themes/Work/Blue-Sphere/viewmag+.svg"
   sodipodi:docbase="/mnt/windows/Themes/Work/Blue-Sphere/"
   xmlns="http://www.w3.org/2000/svg"
   xmlns:sodipodi="http://sodipodi.sourceforge.net/DTD/sodipodi-0.dtd"
   xmlns:xlink="http://www.w3.org/1999/xlink">
  <defs
     id="defs62">
    <radialGradient
       id="radialGradient93"
       cx="218.9404"
       cy="219.7715"
       r="150.7063"
       fx="218.9404"
       fy="219.7715"
       gradientUnits="userSpaceOnUse"
       style="stroke:#000000;stroke-opacity:0.986014;stroke-width:0.981612;">
      <stop
         offset="0.000000"
         style="stop-color:#25a6ca;stop-opacity:1;"
         id="stop94" />
      <stop
         offset="1.000000"
         style="stop-color:#2ea6b9;stop-opacity:0.843137;"
         id="stop95" />
    </radialGradient>
    <radialGradient
       id="aigrd1"
       cx="218.9404"
       cy="219.7715"
       r="150.7063"
       fx="218.9404"
       fy="219.7715"
       gradientUnits="userSpaceOnUse"
       style="stroke:#000000;stroke-opacity:0.986014;stroke-width:0.981612;">
      <stop
         offset="0"
         style="stop-color:#73ffff;stroke:#000000;stroke-opacity:0.986014;stroke-width:0.981612;"
         id="stop53" />
      <stop
         offset="0.2809"
         style="stop-color:#2EA6B9;stroke:#000000;stroke-opacity:0.986014;stroke-width:0.981612;"
         id="stop54" />
      <stop
         offset="1"
         style="stop-color:#006b8b;stroke:#000000;stroke-opacity:0.986014;stroke-width:0.981612;"
         id="stop55" />
    </radialGradient>
    <linearGradient
       xlink:href="#aigrd1"
       id="linearGradient91"
       x1="-0.295723"
       y1="-0.264591"
       x2="0.622574"
       y2="0.365762"
       gradientUnits="objectBoundingBox"
       gradientTransform="matrix(0.996114,0,0,1.0039,0.496124,0.492186)"
       spreadMethod="pad" />
    <radialGradient
       xlink:href="#aigrd1"
       id="radialGradient92"
       cx="-8.09344e-05"
       cy="-7.68867e-05"
       fx="-8.09344e-05"
       fy="-7.68867e-05"
       r="0.789127"
       gradientUnits="objectBoundingBox"
       gradientTransform="matrix(1.06784,0,0,0.936469,0.342219,0.344712)"
       spreadMethod="pad" />
  </defs>
  <sodipodi:namedview
     id="base">
    <sodipodi:guide
       orientation="horizontal"
       position="69.114616"
       id="sodipodi:guide125" />
    <sodipodi:guide
       orientation="horizontal"
       position="55.924290"
       id="sodipodi:guide126" />
    <sodipodi:guide
       orientation="vertical"
       position="59.221870"
       id="sodipodi:guide127" />
    <sodipodi:guide
       orientation="vertical"
       position="71.739220"
       id="sodipodi:guide128" />
  </sodipodi:namedview>
  <path
     style="font-size:12;stroke:none;stroke-width:0.979268;stroke-opacity:0.986014;fill:#a4c9ee;fill-opacity:0.7;"
     d="M134.757,263.776c0,66.739,54.298,121.04,121.039,121.04c66.739,0,121.039-54.301,121.039-121.04c0-66.741-54.3-121.039-121.039-121.039c-66.741,0-121.039,54.298-121.039,121.039z"
     id="path51"
     transform="matrix(1.89511,0,0,1.91236,-231.458,-247.971)" />
  <path
     style="font-size:12;fill:url(#radialGradient92);fill-rule:evenodd;stroke:#1c6671;stroke-width:7.72505;stroke-opacity:0.988235;"
     d="M356.643,263.366c0,57.027-46.23,103.257-103.256,103.257c-57.027,0-103.256-46.229-103.256-103.257c0-57.027,46.229-103.256,103.256-103.256     c57.025,0,103.256,46.229,103.256,103.256z"
     id="path56"
     transform="matrix(2.04451,0,0,2.04451,-264.353,-281.723)" />
  <path
     style="font-size:12;opacity:0.7;fill:#ffffff;stroke:#1c6772;stroke-width:3.86972;stroke-opacity:0.988235;"
     d="M 247.96 280.234 L 160.192 279.985 C 149.355 280.071 142.453 269.367 141.807 260.009 C 141.161 251.804 144.314 236.893 159.891 235.745 L 247.912 234.511 L 247.544 156.946 C 247.387 148.28 259.109 133.621 268.838 134.518 C 279.719 135.414 290.295 146.531 290.351 153.297 C 290.351 155.8 291.56 212.823 291.738 233.991 L 378.264 233.067 C 386.933 233.041 396.046 246.48 395.149 256.209 C 394.253 267.09 387.293 278.589 380.527 278.645 L 290.405 278.407 L 290.766 362.921 C 290.852 373.758 281.996 379.736 272.638 380.382 C 264.433 381.028 249.522 376.951 248.374 361.374 L 247.96 280.234 z "
     id="path124"
     sodipodi:nodetypes="ccccccccccccccccc"
     transform="matrix(1.15641,0,0,1.15641,-51.0229,-37.0639)" />
</svg>
